<svg id="圖層_1" data-name="圖層 1" xmlns="http://www.w3.org/2000/svg" viewBox="0 0 3534.9 3726.76"><defs><style>.cls-1{fill:#fff;}</style></defs><title>我</title><path d="M5115.32,1965c-62,5.07-132.74-1.8-203.34-7.09-25.15-1.89-50.83-2.35-75.72-9.18-16.65-4.56-34.39-3.71-51.58-5.39-25.35-2.48-50.29-7.4-75.43-10.86-21.57-3-43.42-4.22-64.84-9.6-18.63-4.68-38.28-5.21-57.37-8.21-20.08-3.17-40.43-4.78-60.13-10.14-13.82-3.76-28.24-4-42.28-5.86-19.69-2.63-38.83-7.87-58.55-10.08-54.7-6.14-94.94-48.8-95.9-104.34-.39-22.69,1.18-44.83,12-65.29,17.62-33.33,45.36-52.24,82.61-57.52,33.8-4.79,68.12-5,101.69-11.71a33.51,33.51,0,0,1,7.59-.78c32.76,1.06,65.09-4.6,97.44-7.84,45.08-4.52,90.42-6.81,135.22-12.74,30.3-4,61-3.69,91-10.15a43,43,0,0,1,7.6-.82c41.8-1.26,83.1-7.74,124.64-11.62,28.35-2.64,56.77-5.5,85.24-7,14.8-.79,29.53-1.5,43.9-5.55a35.49,35.49,0,0,1,10.54-1.58c25.66.8,51-3.78,75.92-7.88,18.93-3.1,38.29-4.45,56.95-9.41,2-.53,4-.7,6-1.23,7.15-1.93,16.46,2.39,21.4-4.85,4-5.89,1.35-13.94,2.11-21,5.65-52.24,4.56-104.86,9-157.19,2.89-34,4.09-68.17,8.28-102,2.56-20.69,4.84-41.44,8.84-62,5.15-26.44,8.78-53.17,13.9-79.61,4.34-22.42,10.06-44.57,14.83-66.92,5.42-25.36,12.09-50.4,18.67-75.47,7.23-27.5,14.48-55,24.18-81.72,8.7-23.94,25.59-42.57,44-59.64,6.7-6.2,14.44-11.26,21.27-17.33,22.53-20,46.66-15.65,71.19-4.95,21,9.17,30.81,25.17,33.93,48.27,5.05,37.47,3.64,74.06-5.33,110.65-1.68,6.83-1.81,14.16-1.8,21.26,0,39.78.93,79.52,4.09,119.21,1.29,16.24,1.33,32.59,1.58,48.9.48,31.62,1.21,63.21,4.47,94.71a288,288,0,0,1,1.14,32.06c-.51,57.17,7,114,6.86,171.14a94.33,94.33,0,0,0,1.36,13.69c2.19,14.86,4.49,16.82,18.7,13.58,26.68-6.09,53.22-12.9,79.79-19.41,34.41-8.43,68.72-17.29,103.3-25.08,20.23-4.56,40.11-10.72,60.36-15.2,22.75-5,45.37-10.81,67.85-16.65,30.42-7.91,61.64-12.74,91.45-23.08,9.08-3.14,18.87-4.43,28.2-6.09,22-3.91,43.23-10.89,65-15.62,20.23-4.4,40.29-10.4,60.67-14.45,14.47-2.88,27.95-9.37,42.7-10.84,7.44-.74,10.91-4.82,10.57-12.19-.6-13.24-1.11-26.49-1.92-39.72-.76-12.21-2.6-24.39-2.68-36.59-.27-38.79-5.4-77.29-6.35-116a548.65,548.65,0,0,1,2.19-61.11c2.65-30.44,3.91-61.06,9.44-91.16,5.59-30.46,11.47-60.86,20.49-90.6,6.93-22.88,13.44-45.86,24.54-67.17,11.66-22.38,26.08-42.35,48.25-55.78,25.28-15.33,51.93-19,80.47-11.41,37.88,10.08,57.95,37.51,69.84,72.19,7.27,21.19,9.07,43.71,12.48,65.82,4.26,27.65,9.36,55.17,14.05,82.76,2.73,16,5.32,32.1,8.1,48.13,2.95,17,5.69,34.1,9.2,51,2.69,13,4.21,26.09,6.77,39.08,7.24,36.91,12.86,74.14,18.92,111.27,2.88,17.6,5.77,20.14,23.51,15,18.13-5.23,36.46-8.47,55-11.31,10.56-1.63,20.42-5.68,30.95-7.76,24.87-4.91,50.16-8.15,74.51-15.72,5.76-1.79,12.13-1.52,18.09-2.79,22.8-4.89,45.53-10.09,68.32-15.05,25.79-5.61,51.63-11,77.42-16.67,8.95-2,18-3.69,26.66-6.61,23.67-8,48.49-10.95,72.68-16.51,16.85-3.87,34.46-2.11,52.46,2.91,52.93,14.77,82.54,52,100.9,99.87,23.16,60.34,13.1,119-14.76,175.49-19.4,39.35-49.34,68.12-89.87,85-18.68,7.78-38.17,13.64-57.37,20.15-23.9,8.12-47.83,16.18-71.85,24s-48.39,15.12-72.53,22.85c-22.62,7.24-45.11,14.9-67.74,22.11-23.17,7.38-46.86,13.34-69.55,22-18.92,7.2-39.12,10.22-57.48,19.27-6.42,3.17-7.81,6.8-7.89,12.81-.23,17,3.82,33.45,7.24,49.79,8.23,39.27,19.91,77.7,32.74,115.71q31.5,93.27,70.7,183.62c22.15,51.34,45.88,102,72,151.4a1019.12,1019.12,0,0,0,54.4,91.77c6,8.88,8.25,9.16,14.1.64q40.18-58.47,80.08-117.15,33.15-48.49,66.39-96.95c22.46-32.69,44.47-65.71,67.65-97.88,35.91-49.87,68.19-102.55,112.47-146,14.62-14.36,31-26.27,48.32-36.87a337.13,337.13,0,0,1,81.77-35.83c46.59-13.66,87.26.87,116.5,38.21,25.95,33.12,36.92,70.39,29.29,112.93-5.26,29.35-17.21,54.81-35.58,78-22.15,28-40.19,58.67-57.34,89.93-42.78,78-86,155.81-128.87,233.74-34.33,62.33-68.36,124.82-102.83,187.06-12.06,21.8-24.89,43.17-37.64,64.57-6.93,11.62-7.32,11.63,3.37,19.37a829.87,829.87,0,0,0,90.07,56.52c26.24,14.29,52.89,27.75,80.49,39,20.07,8.23,40.41,15.87,61.08,22.75,24.57,8.18,49.55,14.57,74.29,22,10.39,3.1,21.2,2.62,31.5,5.87,4.93,1.56,7.72-1.69,7-6.94-1.24-8.56-2-17.28-4.21-25.59-7-26.13-7.58-52.83-3.19-78.93,5.29-31.48,19.34-59.5,41.31-83.54,19.94-21.82,44.2-35.13,72.4-42.43,19.46-5,37.44.47,54.95,7.61a478,478,0,0,1,90.49,49.32c68.54,47.23,118.18,108.93,145.11,188.56,11.17,33,17.62,66.89,21.28,101.17a237.45,237.45,0,0,1-2.11,67c-3.93,22-7.16,44.08-14.05,65.46-15.88,49.25-41.56,92.42-78.72,128.69a278.58,278.58,0,0,1-79.67,55c-26,11.81-53.39,18.17-81.52,23.66-57.82,11.29-115.68,7.71-173.59,5.14-17.6-.78-35-5.93-52.62-8.63-30.13-4.62-59.5-13-88.8-21.42-23.76-6.82-46.95-15.3-70.16-23.75-28.54-10.39-56.71-21.77-84.05-34.9-33.27-16-66.74-31.58-98.65-50.3-21-12.29-42.71-23.22-63.85-35.22-31.27-17.75-62.28-36-93.47-53.85-11.88-6.82-23.79-13.6-36-19.91-13.35-6.94-13.57-6.76-23.07,4-13.85,15.61-27.41,31.49-41.41,47-22.19,24.51-43.66,49.7-67.92,72.22-24.75,23-52.39,41.92-84.51,52.62-35.32,11.76-71.29,14.65-108.17,4.71-56.69-15.27-95.89-50.77-122.68-101.61-30.48-57.82-41.4-119.63-37.86-184.52,2.14-39.31,11-76.55,33.21-109.51s52.71-52.73,92.65-57.52c14.22-1.71,28.34-1.88,42.62-2.08,14.57-.21,29.16-4,43.59-6.89,5.45-1.11,10.83-2.66,16.36-3.64,8.82-1.56,10.29-4.75,5.56-12.44-8.24-13.43-16.9-26.6-25.29-39.93-47.19-75-88.61-153.1-125.65-233.54-30.19-65.58-56.88-132.61-80.69-200.72-17.75-50.78-33.63-102.19-48.34-154-16-56.22-29.68-113-43.55-169.71-4.46-18.25-7.9-36.75-12.16-55.06-2.16-9.3-3.08-9.42-12.72-7.3-33.73,7.43-67.8,13.52-101.09,22.52-24.53,6.62-50,8.75-74.07,17.43-9.83,3.54-20.85,4.27-31.28,6.62-35.68,8-71.62,15-106.87,24.82-8.85,2.47-18,2.94-27,4.85-24.25,5.16-47.87,13.26-72.65,15.85-9.73,1-18.37,5.62-27.84,7.76-23.73,5.35-48.18,7.53-71.21,16.15-9,3.38-19,4.27-28.37,5.4-21.23,2.56-41.74,9.21-63.3,9.79-15.26.4-30.16,3.72-43.66,11.66-13.21,7.77-20,19.54-23.09,34.28-4.63,22.25-4.82,44.42-1.74,66.89,2.71,19.74,2,39.7,2,59.59q0,155.28,0,310.56c0,2,0,4.08,0,6.12.09,17,2.68,19.12,18.69,12.9,11.53-4.48,23.78-6,35.59-8.19,30-5.64,59.42-13.43,89.37-18.92,40.58-7.43,81.38-13.42,122.77-8.39,36.33,4.41,70.53,14.81,97.88,40.75,18.48,17.52,30.52,38.85,36.82,63.76,13.26,52.41-.31,99.61-27,144.34-25.16,42.21-60.22,73.36-105,94.08-24.45,11.33-49.76,19.37-75.73,26.15-25.51,6.66-50.7,14.57-75.83,22.57-8.28,2.64-16.83,3.91-25.16,6-21.12,5.23-41.7,12.51-63.33,16-25.73,4.18-37.35,17.26-41.68,43.36-5.18,31.16-7.78,62.62-11.28,94-4.4,39.46-9.8,78.81-14.55,118.24q-4.11,34.13-7.48,68.33c-2,20.77-5.21,41.41-7.57,62.15-3.21,28.3-7.23,56.52-10.3,84.86-2.3,21.24-5.74,42.35-8.82,63.5-2.43,16.63-4.76,33.42-6,50-3.33,45.24-15.61,87.91-31.32,130-17.65,47.3-38,93.22-66.83,134.92-30.46,44.07-67.65,81.31-115.06,106.89-21.33,11.51-44.37,19.28-67.93,26.15-23,6.69-46.31,8.46-69.37,9.41a353.72,353.72,0,0,1-90.89-8.35,700.44,700.44,0,0,1-87.57-25.4c-26.62-9.65-52.28-21.44-77.49-34.44-28.48-14.67-55.89-31-81.54-50-58.57-43.48-100-99.07-119.72-170.19-11.55-41.75-14-84-11.66-127,2.93-54.14,13.4-107,25-159.68,4.15-18.81,10.1-37.24,21.74-53.32,14.7-20.34,34.54-32.2,58.7-37.51,15.5-3.4,30.58-5.16,46.79-1.58,31.86,7,54.76,25.08,72,51.8,11.53,17.9,16,38.39,21.43,58.48,8.26,30.33,13.23,61.67,27.66,90.09,22.88,45.09,56.52,78.61,103.59,98.67,22.77,9.7,46.09,11.47,70.13,10.51,5.23-.21,9.52-2.27,14.13-4.86,24.18-13.57,32.5-36.31,37.62-61.5,4.65-22.91,10.41-45.59,15.27-68.45s9.23-45.81,13.72-68.74c4.6-23.46,9.19-46.92,13.6-70.41,9.77-52.05,19.43-104.14,20.47-157.29.41-20.45,3.13-40.66,4.57-61,1-14.39-1.16-17-15.26-13.33s-29,4.51-42.95,10.19c-9.74,4-20.64,5.24-31.11,7.31-15.93,3.15-32,5.5-47.25,11.58-7.61,3-16,2.68-24,4.59-24.13,5.78-47.88,13.33-72.6,16.62-10.06,1.33-19.6,5.16-29.42,7.61-23.65,5.91-47.77,9.48-71.38,15.71-13.51,3.56-28,5.16-41.87,8-17.92,3.65-35.78,7-54,9.19-38.62,4.64-77,5.62-115.64-.67a277,277,0,0,1-108.15-41.81c-17.65-11.52-32.13-26.09-39.74-46.79a65.66,65.66,0,0,1-2.51-36.11c5.33-26.57,14.36-51.89,31.17-73.85a68.44,68.44,0,0,1,20.26-18.25c38.26-21.77,76.84-43.08,117.28-60.55,29.71-12.83,59.82-24.7,90.16-36.12,31.63-11.92,63.52-23.3,95-35.85,24.32-9.7,49.29-18.22,74.25-26.47,25.44-8.4,50.58-17.73,75.73-26.86,28.53-10.34,57.18-20.36,85.66-30.81,32.25-11.84,64.56-23.64,96.17-37,22-9.35,34.67-26.2,35.62-51.8,4.43-118.7,9.42-237.39,10.07-356.19.22-40.32,3.26-80.48,4.43-120.74.15-5.1.4-10.2.27-15.29-.39-16-4.12-19.6-20-19.75C5218,1960.4,5171.18,1963.55,5115.32,1965Z" transform="translate(-4330.13 -42.09)"/><path d="M7105.44,42.39c23.89,4.12,56.87,5.28,88.86,15.55,31.26,10,59.48,25.71,87.78,41.29a861.83,861.83,0,0,1,136.78,93.61c50.94,42.52,97,89.59,136.74,142.87,28.62,38.37,55,78.07,76.51,120.92,12.6,25.15,19.82,52.14,26.59,79.28,7.61,30.55,12.67,61.69,21.57,91.94,3.83,13,3,26.52.89,39.5-6.43,40.33-15.72,79.94-40.67,113.62-16.88,22.79-39.17,37.09-67.18,44.12-29.31,7.35-56.76,2.74-83.49-8.37a85.72,85.72,0,0,1-42.49-37.91c-12.39-22.2-23.83-44.95-36.41-67-35.85-63-78.83-120.94-126-175.91C7227.63,469,7167,405.17,7107.54,340.29c-33.48-36.52-63.37-75.87-87.22-119.19-15.93-28.95-23-60.09-13.93-94.17,7.2-26.95,18.07-50.37,39.5-68.73C7060.74,45.48,7077.66,40.8,7105.44,42.39Z" transform="translate(-4330.13 -42.09)"/><path d="M5474.31,613.05c-28.28,2.52-59.56-3.36-90.77-7.35-28.12-3.6-56-10.34-83.45-17.62-28.81-7.64-57.65-16-85.32-26.93-29.12-11.53-58.42-22.72-86.87-36.17-25.59-12.1-51.35-23.9-76.67-36.59s-50.41-26-75.42-39.4c-21.53-11.53-35.7-29-43.34-51-12.14-35-11.36-70.57,5.7-103.88,23.21-45.3,65.25-68.25,116.13-58.21,18.12,3.57,36.5,3.74,54.69,5.55,29.35,2.91,58.28,8.58,87.62,11.62,24.68,2.56,49.89,2.69,74,9.8a26,26,0,0,0,7.51,1.33c24.59-.36,48.37,6.82,72.92,7.38,14.69.33,28.9,5.22,43.72,6.58,33.42,3.06,67.08,6,99.89,12.64,40.34,8.2,78.86,22.37,110.87,50.09,43.66,37.8,64.39,85.22,55.44,142.62-6.35,40.72-28.19,73.5-62,97.89-33.53,24.22-71.34,32.94-112,31.69C5484,613,5480.89,613.05,5474.31,613.05Z" transform="translate(-4330.13 -42.09)"/><path class="cls-1" d="M3714.7,1209.72" transform="translate(-4330.13 -42.09)"/></svg>