<svg id="圖層_1" data-name="圖層 1" xmlns="http://www.w3.org/2000/svg" viewBox="0 0 3663.82 1290.24"><title>我在哪</title><path d="M508.71,2478.55c0,23.65-.12,47.3.05,70.95.08,10.9.74,11,11.86,9.05,19.62-3.52,38.22-11.44,58.52-12.2,12.72-.48,25.41-.72,37.06,4.64,26.9,12.38,29.87,35.22,23.71,58.69-5.34,20.34-19.52,34.9-38.62,44.56a118.67,118.67,0,0,1-35.61,11.9c-18.25,2.81-35.08,10.71-53,14.63-4.85,1.06-7.22,3.45-7.67,8.25-.82,8.69-2.55,17.34-2.82,26-1.1,35.92-5.29,71.54-9.61,107.2-3.78,31.15-9.4,61.85-20.17,91.42-9.6,26.38-22.38,50.81-46.13,68.49-13,9.66-27.87,16.37-43,17.82-60.71,5.81-112.06-13.43-149.39-61.59-17.88-23.06-22.33-50.49-18.27-79.13,2.23-15.75,4-31.58,8.92-46.84,3.12-9.68,8.79-17.65,18.18-22.27,18.67-9.2,39.25-.7,46.9,20a258.84,258.84,0,0,1,10.94,38.43c3,14.68,12.92,23,25,29.72,9.19,5.1,19.41,8,29.79,9.56,13.79,2.12,17.14-.3,22.88-13a165.79,165.79,0,0,0,12.13-41.28c5-30.89,9.83-61.85,10.69-93.23.12-4.57,1.51-9.1,2-13.68.78-7.64-1.29-9.76-8.66-8.07-9.18,2.1-18.24,4.73-27.27,7.38-42.79,12.59-85.65,24.49-130.95,24.59a91.4,91.4,0,0,1-46.6-12.2c-22.26-12.68-23.62-41.41-2.61-56.21,15.92-11.23,33.8-18.67,51.88-25.3,30.47-11.18,61.56-20.75,92.2-31.49,24.17-8.47,48-17.79,72.1-26.5,5.17-1.87,7.48-4.84,7.73-10.18.81-17.45,2.27-34.88,2.84-52.33,1.21-37.51,2-75,3-112.53.37-14-.3-15.33-15.15-13.67-31,3.47-62.1,2.57-93.18,2.61-47.56.07-94.29-6.88-140.72-16.24-14.38-2.89-29.06-4.36-43-9.22-16.49-5.73-24.58-17.52-23.95-35.6.6-16.9,10.45-29.64,27.21-33.12,11.77-2.45,23.88-3.37,35.87-4.67,37.67-4.09,75.19-9.57,113.08-11.39,21.56-1,43.18-.83,64.62-3.8,22.9-3.17,45.79-6.34,68.71-9.3,9.46-1.22,9.77-7.76,9.87-14.73.4-29.31,1.32-58.6,4.55-87.77,4-35.81,10.35-71.14,22.75-105.24,3.92-10.77,9-20.75,18-28.48,9.64-8.33,20.87-9.82,30.52-4.08,8.49,5.06,13.15,17.83,10.62,28.55a31.36,31.36,0,0,1-4.95,11.23c-2.58,3.59-2.87,7.58-2.23,11.8,7.09,46.42,6,93.23,6.9,139.95.1,5.14.11,10.28.29,15.42.48,14,1.41,14.55,16,11.28,31.71-7.11,63.68-13.23,95.1-21.35,30.37-7.84,61.11-14.25,91.16-23.38,8.84-2.68,9.66-6.28,9.28-14.14-1.33-27.18-2.17-54.39-1.37-81.64.61-20.77,5.11-40.71,11.26-60.35,2.74-8.78,6.73-17.14,13.41-24.19,17.85-18.83,45.18-13.88,54.38,10.16,1.1,2.87,2.59,5.89,2.56,8.84-.19,24.43,9.59,47.1,12.87,70.9,2.3,16.75,4.64,33.5,7.15,50.22,1.57,10.53,2.5,11.7,13,8.49,26.64-8.1,54.24-11.87,81.28-18.1,11.25-2.59,22.7-4.36,34-6.59,4.11-.81,8.79-.92,12.13-3,20.5-12.76,45,3.67,55,21.73,17.63,32,3.51,74.6-29.93,91.26a353,353,0,0,1-78.15,28.23c-16.83,3.9-33.44,8.77-50.31,12.5-7,1.56-10.14,3.65-8,11.3,18.11,64.57,41.52,127.05,76.27,185.07,5.84,9.74,8.32,9.53,15.27-.27,31.41-44.31,60.57-90.12,94-133.09,10-12.92,21.89-23.17,37.15-30.08,19.08-8.65,38.9-6.78,51.85,7.92,11.26,12.77,13.53,37.24,4.31,52.1-1.63,2.62-3.25,5.92-5.79,7.22-13.8,7.07-15.45,21.08-20.73,33.06-20.85,47.29-47.83,91.34-75.1,135.24-2.73,4.39-5.48,8.77-8.32,13.09-8.17,12.41-8.67,13.09,4.26,21.53a287.45,287.45,0,0,0,70.6,33.59c9.92,3.15,19.85,6.61,30,8.58,9.29,1.8,10.24.33,7.89-8.62-2.65-10.11-3.51-20.18-1.47-30.49,6.51-32.93,43.67-49.49,71-27.51,16.27,13.09,33,25.39,45.49,42.32,28.86,39.3,30.86,104.89-13.15,145.11-6.79,6.21-15,12.08-23.59,15.06-22.84,7.87-46.22,13.65-71,8.89-16.47-3.15-33.41-3.44-49.79-7.75-55-14.43-105.33-37.65-149.57-72.92-7.92-6.32-7.83-6.22-14.73,1.4-12.18,13.45-24,27.32-37.07,39.87-11.8,11.29-26.14,19-43.31,19.89-27.41,1.48-53.85-16.26-63.67-44-8.06-22.78-9.82-46.54-3.31-69.82,6.32-22.56,25.33-37.63,51.18-33.11,4,.7,7.8,2.92,12.14.33,7.73-4.63,9.54-10.84,4.34-18.93-51-79.26-82-166-101.8-257.05-4-18.2-3.94-18-22.81-13.54-34.65,8.2-69.41,15.92-104,24.29-31.1,7.53-62.57,13.28-94,19-8.52,1.55-11.55,4.82-11.43,13.05.35,23.64.12,47.29.12,70.94Z" transform="translate(-100.62 -1789.56)"/><path d="M3176,2252.34c10.51-20.12,21.17-39.47,30.83-59.28,10.4-21.3,20-43.09,23.43-66.65,5-34.91,4.12-69.63-8-103.32-7.69-21.44-22.74-33.66-46.84-34.9-12.66-.66-25.21-1.16-37.86,0-9.66.92-18.3,3-25.87,9.81-7.05,6.29-13,5.78-21.41.63-20.69-12.69-23.18-41.51-5.46-60.41,9.08-9.69,20.34-16.56,32.19-21.84,27.74-12.35,57.25-18.68,87.55-13.37,40.88,7.18,70.51,30.49,89.67,66.26,16.6,31,23.36,64.53,26.11,99.13,5.5,69.3-15.53,131.74-50.88,190.61-1.07,1.77-2.45,3.36-3.42,5.18-4.46,8.4-3.68,10.05,5.78,12.34a134.68,134.68,0,0,1,44.29,19.26c27.63,18.71,44,45.33,53.7,75.86,13.73,43.4,16.75,88,7.07,132.36-12.56,57.54-45.73,102.37-97.91,132-25.29,14.34-53.09,22.82-82.68,8.89-6.31-3-9-.52-8.93,7.59.17,22.1.3,44.21,1.14,66.29,3.59,94.54,2.65,189.11,2,283.67-.12,16.06-6.09,30.53-18.68,41-29.91,24.88-63.53,7.67-75-19-3.47-8.08-4-16.75-4.35-25.59-4-101.72-1.61-203.51-3.9-305.24-2.25-99.66-5.28-199.32-8-299-2.22-80.6-6.95-161.31-.74-242,1.81-23.54,4.38-47.05,10-70.05,5-20.61,24.89-30,43.92-21.49,9.26,4.17,13.92,11.9,16.54,21.27,6.26,22.3,9.66,45.1,12.82,67.94,4.38,31.58,6.6,63.36,8.27,95.18C3171.41,2247.41,3171.13,2249.57,3176,2252.34Zm2.81,85.34c-.62,4-1.13,5.55-1.05,7,3.37,56.84,5.91,113.71,6.49,170.65.1,8.72.27,17.44.78,26.15.72,12.26,1.7,12.6,13.89,13.57,20.57,1.62,36.29-8,51.15-19.92,18.32-14.68,32.89-32.57,38-55.15,6.1-26.93,3.22-54.15-6.54-80.12-4.81-12.81-13.79-22.86-27.36-28.22C3229.06,2361.76,3202.9,2354.22,3178.77,2337.68Z" transform="translate(-100.62 -1789.56)"/><path d="M2851.84,2555.74c-18.79,7.8-35.64,14.69-52.41,21.78-17.32,7.32-34.3,15.51-51.94,22-9.41,3.44-12.72,8.57-13.74,17.91-6,55.22-10.23,110.56-13.84,166-1.1,16.88-3.82,33.54-15.4,47.64-9.68,11.78-22.24,13.6-35.57,10.41-13-3.1-19.68-13.34-22.16-25.59-1.42-7-1.45-14.34-1.27-21.51.84-33.38,2.95-66.68,6.77-99.89,2-17.31,3.1-34.73,4.17-52.12.62-10.06.13-10.51-10.46-8.39-17.73,3.55-35.38,5.79-53,0a139.3,139.3,0,0,1-19.07-7.33c-15.55-7.75-21.2-25.66-13.26-40.8,4.39-8.38,10.56-14.31,21.16-12.55,8.19,1.36,15.88-.46,23-3.69,17.66-8,36.62-12.76,54.13-21.21,6.24-3,10-5.73,10.8-13.17,2.43-21.88,5.94-43.66,9-65.49.49-3.54,1-7.19-1.65-10.34-20.59,3.67-41.24,7.1-61.79,11.08-19.59,3.8-37.74-1.31-54.85-9.22-12.79-5.92-18.13-24.21-13.83-39.36,3.78-13.34,15.28-21.49,30.32-21.9a157.61,157.61,0,0,0,55.09-11.5c14.55-5.87,29.09-12.05,44.14-16.44,12.76-3.73,19-10.3,20.49-23.46a245.46,245.46,0,0,1,13.07-55.46c1.93-5.3,3.81-10.81,6.91-15.46,4.14-6.21,10.07-10.88,18.48-9.41,7.73,1.35,13.34,5.6,16.07,13.12a47.2,47.2,0,0,1,2.79,16.58c0,11.82.46,23.64.45,35.47,0,6.79,2.51,9.43,9.63,7.38,13.58-3.93,26.83-9,41.09-10.55,8.37-.89,16.64-2.72,25-3.4,7.41-.61,10.76-3.91,9.22-10.93-7.39-33.65-14.7-67.23-34-97.05-12.45-19.19-30.18-27.34-52.56-28.73-40.58-2.51-81-.74-121.44,2.8-9.47.83-18.8,1.4-26.3-6.56-13-13.8-11.42-34.17,4.9-44a320.33,320.33,0,0,1,66.86-30.69c36.25-11.73,73.37-13.35,110.83-10.86,27.73,1.85,51.25,14.31,71.79,32.05,29.68,25.62,46.91,58.9,59.63,94.69,12.44,35,20.12,71.06,25.4,107.74,8.36,58.05,12.8,116.36,12.23,174.92a1196.34,1196.34,0,0,1-11.95,156.49c-5.47,38.63-10.48,77.27-20.45,115.11-10.31,39.09-25.71,75.9-50,109-25.18,34.23-59.52,47.31-101.51,43-19.19-2-33.9-22.3-31.9-43.19,1.54-16,9.21-28.13,24.58-35,17-7.55,28.8-19.66,37.11-36.06,17.7-35,27.05-72.2,33.5-110.28,4.7-27.78,9.51-55.61,12.36-83.6C2850.62,2603.34,2855.06,2581,2851.84,2555.74Zm-107.12-47.24c4.45-.83,6.64-.84,8.47-1.64q35.28-15.32,70.44-30.87c1.88-.83,4.11-1.87,5.12-3.46,4.42-6.89,10.6-11.14,18.42-13.69,4.33-1.4,6.86-4.69,6.64-9.43-.39-8.21-.87-16.42-1.26-24.63-.25-5.31-3.28-7.26-8.35-6.57-29.68,4-59.31,8.29-87.84,17.75-3.37,1.12-5.22,3.09-5.54,6.59C2748.88,2463.93,2746.88,2485.29,2744.72,2508.5Z" transform="translate(-100.62 -1789.56)"/><path d="M2235.82,2536.06c.95-72,2.67-138.72,7.42-205.33,2.16-30.2,6.3-60.25,19.58-88.33,9-19,20.43-25.71,38.17-18.82,3.62,1.4,7.1.4,10.74-.67a178.86,178.86,0,0,1,27.7-5.37c35.41-4.53,59.32,11.75,77.57,39.11,14.93,22.36,22.09,47.48,27.07,73.31,11.36,58.9,9.89,118.49,9.9,178,0,27.82-2.63,55.32-10.19,82.16-9.46,33.62-27.35,62.13-56.9,82.52-20.46,14.13-42.66,24.36-68.72,22.89-6.63-.37-11.24-.12-14.34,7.92-6.3,16.31-21.65,25.63-34.79,23.61-18.11-2.79-30.7-15.78-32.72-34.4-.72-6.61-.46-13.34-.47-20C2235.81,2625.39,2235.82,2578.12,2235.82,2536.06Zm71.83-96.67c0,63.08,0,108.33,0,153.57,0,16.17,1.33,16.44,17.17,10.22,25.06-9.84,37.52-28.14,41.56-53.49a236.94,236.94,0,0,0,3-36.81c.08-48.34-3.8-96.51-7.47-144.66-1.56-20.37-4.41-40.85-12.49-60.09-5.66-13.48-12.12-17-26.76-16.21-6,.33-8.39,2.52-8.76,8.23-.47,7.16-2.31,14.28-2.38,21.43C2311.09,2366.81,2306.61,2412,2307.65,2439.39Z" transform="translate(-100.62 -1789.56)"/><path d="M1201.59,1985.05c0,10.83.43,21.73-4,31.9-6.06,14-15.77,24.13-32.11,26.17-17.06,2.12-30.86-4.48-38-19C1100.84,1969.9,1058,1928.18,1017,1885c-11.82-12.44-23-25.39-30.06-41.1-7.59-16.89-4.35-34.43,8.28-47a23.7,23.7,0,0,1,19.9-7.2c28.28,2.77,53.94,12,76.54,29.07,29.17,22,56,46.21,78.55,74.82C1191.61,1920.65,1201.22,1951.29,1201.59,1985.05Z" transform="translate(-100.62 -1789.56)"/><path d="M474.82,1974.45c-24.2-3.78-48.66-6.87-72-14.57-28.87-9.52-56.07-23-83.45-35.9-24.22-11.44-30.14-43.65-11.36-62.4a26.67,26.67,0,0,1,21.53-7.83c27.22,2.11,54.25,5.26,81.11,10.54,18.46,3.63,37.46,4.83,56.42,5.21,15.95.32,31,3.76,44.87,12.19,19.1,11.6,27.06,28.21,24.43,49.5C534,1950.32,522.69,1962.38,504,1969,494.4,1972.3,485.13,1975.06,474.82,1974.45Z" transform="translate(-100.62 -1789.56)"/><path d="M1580.59,2571.7c5.43-4.24,8.67-6.48,11.58-9.09,26.21-23.62,53.36-8.83,66.08,16.53,10.83,21.58,14.89,45.48,18,69,6.33,48,10.55,96.26,13.5,144.7,3.21,52.74,8.34,105.39,11.27,158.2,1.25,22.6,5.32,45.11,4.37,67.82-1,24.8-12.42,45.09-35,55-35.45,15.55-63.08-.73-77-33.32-10-23.5-7.44-49.45-9.09-74.29-7.36-110.57-7.15-221.36-8.06-332.11a123.71,123.71,0,0,0-3.76-27.43c-7.11,7.64-9.76,17.49-12.46,26.64-12.16,41.18-27.14,81.37-42.11,121.54-17.15,46-34.76,91.95-53.62,137.32-10.7,25.75-19.84,52.61-41,72.94-17.49,16.78-50.71,15.38-68.21-1.19-26.35-24.95-24-54.4-17.59-85.22,6.67-32,19.23-62.23,29.66-93.07,16.5-48.79,35.47-96.77,51.25-145.78,21-65.29,40-131.23,58.3-197.35,12.16-43.87,25.23-87.49,37.92-131.21,1.33-4.59,3.72-9.58.09-13.61-4-4.45-9.5-1.37-13.36.44-20.42,9.57-42.19,13.64-64.25,16.4a137.5,137.5,0,0,1-26.22.49c-20.1-1.37-34-12.06-42-30.29-8.28-18.79-3.36-35.33,8.46-51.22,7.16-9.63,16.62-15.44,26.48-21.55,21.23-13.15,44.37-21.94,67-32.15,30.92-14,60.57-30.74,90.9-46a19,19,0,0,0,10.36-12.11c11.14-34.79,23.77-69.08,34.54-104,5.07-16.45,10.84-32.85,25.84-44.58,13-10.12,36.3-10.89,49.56-.66,23.49,18.14,27.11,41.29,20.24,68.12-1.44,5.6-4.21,12.64,1,16.89s11.61.47,16.69-2.44c27.42-15.71,56.13-29.43,81.68-48,13.26-9.67,24.34-22.56,35.55-34.79,13-14.15,29.58-23.19,47.35-25.35,21.91-2.65,40.58,8.5,54.19,26.09,26.48,34.2,17.93,76.65-9.42,107.92-22.91,26.19-50.21,46.67-81.17,62.92-31.85,16.72-62.66,35.33-95.49,50.31-21.46,9.79-42.78,19.83-64.88,28.13-14.9,5.59-24.2,14.48-28.28,31.55-9.77,40.91-20.56,81.65-30.5,122.51-15.2,62.48-34.36,124-47.23,187C1581.31,2565.1,1581.19,2567,1580.59,2571.7Z" transform="translate(-100.62 -1789.56)"/><path d="M1865.73,3052.05c-31,.29-53.22-1.89-72.79-15.74-16.22-11.47-22-27.49-18.51-46,3.29-17.6,13-31.56,31.55-36.73,13-3.63,26.16-7.1,39.37-10,9.48-2.12,14.05-7.76,12.73-17-6-41.83-4-84.15-8.41-126.11-2.71-25.68-2-51.73-2.87-77.62-.52-16.49-2-17.71-18.34-15.12-11.35,1.8-22.66,4.43-34.08,5.13-38,2.33-60.49-24.63-53.14-61.69a40.81,40.81,0,0,1,21.76-28.46c22.5-11.52,42.8-27.25,67.62-34.39,9.11-2.63,10.49-10.7,10.28-19.37-.66-27.48-2-55.06,1.6-82.39,2.23-17.1,7.21-33.36,24.22-42.64,18.52-10.11,43.26-3.26,54.08,14.89,10.07,16.89,11.51,35.89,14.44,54.58a80,80,0,0,1,.72,8.33c1.1,20.91,6.34,20.34,23.67,12,29.89-14.38,58.86-3.81,71.14,26.81,13.34,33.29-1.61,60.37-27.25,79.85-13,9.9-26.69,19.56-41.93,26.2-7.61,3.32-10.47,8.27-10,16.74,3.85,63.34.48,126.67-.78,190-.17,8.71-2,17.37-2.61,26.08-.62,8.42,3.6,12.22,11.76,9.71,24.39-7.5,49.76-10.18,74.64-15.15,17.47-3.49,34.17-9.59,51.87-12.38,31.47-5,50.8,5.64,65.37,28.48,15,23.56,8.33,55.36-9.7,75-12.74,13.9-28.11,20.06-45.82,24.92-52.68,14.46-107.55,16.68-160.27,29.86C1910.08,3046.39,1884.07,3050,1865.73,3052.05Z" transform="translate(-100.62 -1789.56)"/><path d="M3444.48,2032.86c-3.21-48.73,6.39-96.77,28.07-142,16.55-34.55,43.36-57.22,80.73-69,25.59-8,51.26-8.3,76.63-5.69,24.48,2.51,46.44,13.61,65.43,31,21.6,19.77,38.23,42.44,49.12,69.3,7.32,18,12.64,36.74,14.83,56.21,1.47,13,3.11,26.08,4.54,39.13,2.93,26.77-5.32,52.05-11,77.56-5.19,23.13-12.07,45.86-17.47,69-5.94,25.42-12,50.79-17.54,76.31-10.64,49.27-14.46,99.21-15.12,149.46-.34,25.09-.25,50.2-.39,75.3-.12,23.23-3.2,46.14-10.93,68-8.36,23.64-21.59,43.58-48.52,49.26-16.1,3.41-30.71-.56-40.93-13.44-10-12.64-14.08-27.54-7.37-43.47,2.41-5.73,2.71-11.63,2.81-17.57.47-30.27,1.49-60.56,1-90.82-.79-45.47,2.55-90.77,6.65-135.9,4.22-46.33,15.61-91.61,27.35-136.61,10-38.36,24-76,30.19-115,5-31.37,2.71-64.59-23.21-89.78-5.72-5.56-12.15-8.57-20.37-8-14.6,1-29.52-1.9-43.81,2.88-20.91,7-26.28,27-36.19,43.43-22.95,38-21.48,79.92-20.6,121.77.31,14.88-3.75,28.16-15.54,36.79-21.59,15.79-48.52,1.26-52.64-27.54C3446.85,2080.57,3445.3,2057.54,3444.48,2032.86Z" transform="translate(-100.62 -1789.56)"/><path d="M3725.13,2778.78c.79,29.44-17.4,51.76-42.76,55.69a29.06,29.06,0,0,0-5.83,1.24c-23.49,8.9-42.25-.77-50.54-25.21-8.92-26.25-10.2-50.88,8.14-74.45,15.41-19.81,55.86-22.87,72.16-3.54C3717.94,2746.32,3728,2761.34,3725.13,2778.78Z" transform="translate(-100.62 -1789.56)"/></svg>