<svg id="圖層_1" data-name="圖層 1" xmlns="http://www.w3.org/2000/svg" viewBox="0 0 3762.03 1478.02"><title>我坐哪</title><path d="M408.48,2072.67c0,24.25-.12,48.51,0,72.76.08,11.17.75,11.32,11.86,9.28,19.62-3.6,38.22-11.73,58.52-12.51,12.73-.49,25.41-.74,37.07,4.76,26.89,12.7,29.86,36.12,23.7,60.19-5.34,20.86-19.52,35.79-38.62,45.69-11.23,5.82-23,10.22-35.61,12.21-18.25,2.88-35.08,11-53,15-4.85,1.09-7.22,3.54-7.67,8.46-.82,8.92-2.55,17.79-2.81,26.71-1.11,36.84-5.29,73.37-9.62,109.93-3.78,31.95-9.4,63.43-20.16,93.76-9.6,27.05-22.39,52.1-46.14,70.23-13,9.92-27.87,16.79-43,18.28-60.71,5.95-112.06-13.78-149.39-63.16-17.88-23.65-22.34-51.78-18.28-81.15,2.24-16.16,4-32.39,8.92-48,3.13-9.94,8.8-18.11,18.18-22.85,18.67-9.43,39.25-.71,46.9,20.49a270.63,270.63,0,0,1,10.95,39.42c3,15.05,12.91,23.59,25,30.47,9.18,5.23,19.41,8.17,29.78,9.8,13.79,2.18,17.15-.31,22.88-13.38a172.31,172.31,0,0,0,12.13-42.33c5-31.67,9.84-63.43,10.69-95.6.12-4.7,1.51-9.34,2-14,.78-7.83-1.29-10-8.66-8.27-9.18,2.15-18.24,4.84-27.27,7.57-42.78,12.9-85.65,25.11-130.95,25.21a89.5,89.5,0,0,1-46.59-12.51c-22.27-13-23.62-42.47-2.62-57.65,15.92-11.51,33.81-19.14,51.89-25.94,30.46-11.47,61.55-21.28,92.19-32.3,24.17-8.68,48-18.23,72.11-27.17,5.17-1.91,7.48-5,7.73-10.44.81-17.9,2.26-35.77,2.83-53.67,1.22-38.46,2-76.93,3-115.4.37-14.31-.29-15.71-15.14-14-31,3.55-62.11,2.63-93.18,2.67-47.57.08-94.29-7.06-140.72-16.65-14.38-3-29.06-4.47-43-9.46-16.49-5.88-24.58-18-23.94-36.51.59-17.33,10.44-30.4,27.2-34,11.77-2.5,23.88-3.45,35.88-4.79,37.66-4.18,75.19-9.81,113.07-11.67,21.56-1.06,43.18-.85,64.63-3.9,22.89-3.25,45.78-6.5,68.7-9.54,9.46-1.25,9.78-8,9.87-15.11.4-30,1.32-60.09,4.55-90,4-36.73,10.35-73,22.76-107.93,3.91-11,9-21.28,18-29.2,9.64-8.55,20.87-10.08,30.52-4.19,8.49,5.18,13.15,18.28,10.62,29.28a32.44,32.44,0,0,1-4.95,11.51c-2.57,3.69-2.87,7.78-2.23,12.1,7.1,47.61,6,95.62,6.9,143.53.1,5.27.11,10.54.29,15.81.49,14.38,1.42,14.92,16,11.57,31.71-7.29,63.68-13.57,95.11-21.9,30.36-8,61.1-14.61,91.15-24,8.85-2.75,9.66-6.44,9.28-14.51-1.33-27.87-2.17-55.77-1.37-83.72.61-21.29,5.11-41.75,11.26-61.89,2.75-9,6.73-17.57,13.41-24.8,17.85-19.31,45.18-14.24,54.39,10.41,1.1,2.95,2.58,6,2.56,9.07-.2,25,9.58,48.3,12.86,72.71,2.3,17.18,4.65,34.35,7.15,51.5,1.58,10.8,2.5,12,13,8.71,26.64-8.31,54.23-12.18,81.28-18.56,11.25-2.66,22.69-4.47,34-6.76,4.11-.83,8.79-.94,12.13-3.07,20.5-13.09,45,3.77,55,22.29,17.63,32.86,3.52,76.5-29.93,93.58a347.81,347.81,0,0,1-78.14,29c-16.84,4-33.44,9-50.31,12.82-7,1.59-10.15,3.74-8,11.59,18.12,66.21,41.52,130.28,76.28,189.79,5.83,10,8.31,9.77,15.26-.28,31.41-45.44,60.57-92.42,94-136.49,10-13.24,21.89-23.75,37.15-30.84,19.09-8.87,38.9-7,51.86,8.12,11.25,13.09,13.53,38.19,4.31,53.43-1.63,2.69-3.26,6.07-5.79,7.4-13.8,7.26-15.46,21.62-20.74,33.9-20.84,48.5-47.83,93.68-75.1,138.7-2.72,4.5-5.48,9-8.32,13.42-8.16,12.72-8.66,13.43,4.26,22.09a284.92,284.92,0,0,0,70.6,34.44c9.93,3.23,19.85,6.77,30.05,8.8,9.29,1.84,10.23.33,7.88-8.84-2.65-10.37-3.5-20.7-1.47-31.27,6.51-33.77,43.67-50.76,71-28.21,16.27,13.42,33.06,26,45.49,43.4,28.86,40.3,30.86,107.57-13.14,148.81-6.8,6.37-15,12.39-23.6,15.44-22.84,8.07-46.22,14-71,9.12-16.48-3.23-33.42-3.53-49.8-7.94-55-14.8-105.33-38.62-149.56-74.79-7.93-6.48-7.84-6.38-14.74,1.44-12.18,13.79-24,28-37.07,40.88-11.79,11.58-26.14,19.45-43.31,20.4-27.41,1.52-53.85-16.68-63.67-45.14-8.05-23.36-9.81-47.73-3.3-71.6,6.31-23.14,25.32-38.59,51.18-34,4,.72,7.79,3,12.13.34,7.73-4.74,9.54-11.12,4.34-19.41-51-81.28-82-170.28-101.79-263.61-4-18.67-3.94-18.47-22.82-13.89-34.64,8.41-69.41,16.33-104,24.91-31.11,7.72-62.57,13.62-94,19.49-8.52,1.59-11.55,4.94-11.43,13.38.35,24.24.12,48.5.12,72.75Z" transform="translate(-0.39 -1273.71)"/><path d="M3075.73,1840.68c10.51-20.63,21.17-40.47,30.84-60.79,10.39-21.84,20-44.19,23.42-68.34,5-35.8,4.12-71.41-8-106-7.69-22-22.74-34.52-46.83-35.8-12.67-.67-25.22-1.19-37.87,0-9.65.94-18.3,3.12-25.87,10.06-7.05,6.45-13,5.93-21.41.64-20.69-13-23.18-42.56-5.46-62,9.08-9.93,20.34-17,32.19-22.39,27.75-12.68,57.25-19.17,87.55-13.71,40.88,7.35,70.51,31.26,89.67,68,16.61,31.8,23.36,66.17,26.11,101.65,5.5,71.07-15.52,135.11-50.88,195.47-1.06,1.82-2.45,3.46-3.41,5.32-4.47,8.62-3.69,10.31,5.78,12.65a133.06,133.06,0,0,1,44.28,19.76c27.64,19.19,44,46.49,53.7,77.8,13.73,44.5,16.75,90.28,7.07,135.74-12.56,59-45.72,105-97.91,135.34-25.29,14.71-53.09,23.41-82.67,9.12-6.32-3.05-9-.53-8.93,7.79.16,22.66.3,45.33,1.14,68,3.58,97,2.64,193.93,1.95,290.9-.12,16.47-6.08,31.31-18.67,42.05-29.92,25.52-63.53,7.87-75-19.54-3.46-8.29-4-17.18-4.35-26.24-4-104.31-1.61-208.71-3.9-313-2.24-102.21-5.28-204.41-8-306.61-2.22-82.65-6.95-165.41-.74-248.13,1.81-24.15,4.38-48.26,10-71.84,5-21.15,24.89-30.82,43.92-22,9.27,4.28,13.92,12.2,16.54,21.81,6.26,22.87,9.66,46.25,12.83,69.67,4.38,32.39,6.59,65,8.27,97.61C3071.19,1835.63,3070.9,1837.85,3075.73,1840.68Zm2.81,87.52c-.62,4.14-1.13,5.7-1,7.23,3.36,58.29,5.9,116.6,6.49,175,.09,8.94.27,17.89.78,26.81.71,12.58,1.69,12.93,13.88,13.92,20.57,1.67,36.29-8.22,51.16-20.43,18.32-15.05,32.88-33.4,38-56.56,6.09-27.61,3.22-55.52-6.54-82.16-4.81-13.13-13.8-23.44-27.36-28.94C3128.83,1952.9,3102.67,1945.17,3078.54,1928.2Z" transform="translate(-0.39 -1273.71)"/><path d="M2751.61,2151.83c-18.79,8-35.64,15.07-52.41,22.33-17.32,7.51-34.29,15.91-51.94,22.53-9.41,3.53-12.71,8.79-13.73,18.37-6,56.62-10.24,113.37-13.85,170.19-1.09,17.31-3.81,34.4-15.4,48.86-9.68,12.08-22.23,13.94-35.57,10.67-13-3.18-19.68-13.68-22.16-26.24-1.42-7.16-1.44-14.71-1.26-22.06.83-34.23,2.95-68.38,6.76-102.44,2-17.75,3.1-35.62,4.17-53.45.62-10.31.14-10.78-10.45-8.61-17.74,3.64-35.39,5.94-53,.05a136.86,136.86,0,0,1-19.07-7.52c-15.54-8-21.2-26.32-13.26-41.84,4.4-8.6,10.56-14.68,21.16-12.88,8.19,1.4,15.88-.46,23-3.78,17.66-8.21,36.62-13.08,54.13-21.75,6.25-3.1,10-5.88,10.8-13.5,2.43-22.45,5.94-44.78,8.95-67.16.49-3.64,1-7.38-1.65-10.61-20.59,3.77-41.24,7.28-61.78,11.36-19.6,3.9-37.75-1.34-54.86-9.45-12.79-6.07-18.13-24.83-13.83-40.37,3.78-13.68,15.29-22,30.33-22.45a154.39,154.39,0,0,0,55.08-11.8c14.56-6,29.09-12.36,44.14-16.86,12.77-3.82,19-10.56,20.49-24.05a257.07,257.07,0,0,1,13.08-56.88c1.92-5.43,3.8-11.08,6.9-15.85,4.15-6.38,10.07-11.16,18.48-9.66,7.74,1.39,13.35,5.74,16.07,13.45a49.85,49.85,0,0,1,2.8,17c-.06,12.12.46,24.25.45,36.37,0,7,2.5,9.68,9.63,7.57,13.57-4,26.83-9.25,41.08-10.81,8.37-.92,16.64-2.8,25-3.5,7.42-.61,10.77-4,9.23-11.2-7.39-34.51-14.71-68.95-34-99.52-12.45-19.68-30.17-28-52.55-29.47-40.58-2.58-81-.76-121.45,2.87-9.47.86-18.8,1.44-26.3-6.72-13-14.16-11.41-35,4.9-45.13a316.74,316.74,0,0,1,66.86-31.47c36.25-12,73.37-13.7,110.83-11.14,27.73,1.9,51.25,14.68,71.79,32.86,29.68,26.28,46.91,60.41,59.63,97.11,12.44,35.89,20.12,72.88,25.4,110.49,8.36,59.54,12.81,119.33,12.23,179.39a1259.2,1259.2,0,0,1-11.94,160.48c-5.48,39.61-10.49,79.25-20.46,118.05-10.31,40.09-25.71,77.84-50,111.74-25.18,35.1-59.53,48.52-101.52,44.09-19.19-2-33.9-22.87-31.89-44.3,1.53-16.37,9.2-28.85,24.57-35.87,17-7.74,28.8-20.16,37.11-37,17.7-35.84,27.06-74,33.5-113.09,4.71-28.49,9.51-57,12.36-85.74C2750.39,2200.64,2754.83,2177.7,2751.61,2151.83Zm-107.11-48.44c4.44-.85,6.63-.87,8.46-1.68q35.28-15.72,70.44-31.66c1.88-.86,4.11-1.93,5.13-3.55,4.41-7.07,10.59-11.43,18.42-14a9.11,9.11,0,0,0,6.63-9.67c-.39-8.42-.87-16.84-1.25-25.26-.26-5.44-3.28-7.45-8.36-6.74-29.67,4.14-59.31,8.5-87.84,18.21-3.36,1.14-5.22,3.16-5.54,6.75C2648.65,2057.67,2646.65,2079.59,2644.5,2103.39Z" transform="translate(-0.39 -1273.71)"/><path d="M1643.93,2399.6c1.5-59.33,2.76-108.33,4-157.33.34-13.91-.11-14.49-13.37-15.29-34.77-2.11-68.8-8.41-102.45-17.26-10.9-2.86-20.74-7.75-30-13.65a40.92,40.92,0,0,1-16.25-48.47c6.78-18.56,30.06-29.9,48.79-23,7.62,2.78,15.16,3.6,23.1,4,27.35,1.26,54.66,3.5,82.08,2.82,13.65-.33,14.2-.12,15.54-13.88,2.83-28.79,4.62-57.72,11.52-85.93a332.74,332.74,0,0,1,9.91-33.18c5.92-16.51,19-25.18,33.34-23.11,14.59,2.1,24.85,13.82,27.24,30.63,4.84,34.1,3,68.38,2.94,102.61,0,21.68-3.13,19.49,20.41,20.05,21.15.49,42-3.14,63.06-3.64,5.91-.14,11.37-2.24,16.57-4.76,39.49-19.13,74.3,11.84,71.41,51.92-2.16,30-19.4,49.24-49.52,54.66-37.43,6.75-75.1,10.41-113.21,8.3-11.23-.62-11.43-.42-12,10.7-1.79,38.44-3.4,76.89-3,115.37.46,48-1.78,95.9-3.56,143.82-.34,8.92-2.32,17.76-2.88,26.68-.86,13.86,0,14.89,13.43,13.92,13.62-1,27.15-3.12,40.76-4.28,21.5-1.83,42.52-7.25,64.14-8.14a195.12,195.12,0,0,1,25.25.57c18.27,1.6,32.26,9.55,39,27.2,7.28,19,3.42,36.08-10,51.27-17.29,19.62-40.08,27.78-65,31.83a717.59,717.59,0,0,1-133.79,8.69,429.39,429.39,0,0,1-108.76-16.83c-16.19-4.7-31.23-12.11-43.88-23.72-6.38-5.86-11.14-12.5-12.94-21.14-4.74-22.64,7.35-39.08,30.41-39.75,20.54-.59,41.11.32,61.66.15,18.87-.15,19.26-.43,17.71-19.85C1641.81,2484.11,1643.53,2436.69,1643.93,2399.6Z" transform="translate(-0.39 -1273.71)"/><path d="M3762.17,1711.9c1.45,47.2-7.2,93.16-17.49,139-18.89,84.1-42.49,167-63.54,250.56-8.87,35.17-14,71-18.31,107.06-6.49,53.86-9.36,108-13.35,162.06-2.53,34.28-10.07,67.76-20.41,100.51-4.51,14.29-13.23,25.43-29.28,27.5-20.28,2.61-37.44-10-41-30.33a244.35,244.35,0,0,1-3.13-34.61c-1.13-38,2.1-75.78,5.51-113.59,1.55-17.28,2.53-34.64,3.87-52,2.79-36.18,7.06-72.18,11.89-108.14,12.21-90.93,40.33-178.29,59.88-267.57,8.89-40.56,20.11-80.62,26.46-121.73,5.17-33.51,6.14-67.16,1.88-100.87a100.27,100.27,0,0,0-9.65-31.58c-3.21-6.6-7.79-9.18-14.77-9.69-12.36-.89-24.37.48-35.56,5.63-30.44,14-56.38,34.44-80.21,57.69a56.83,56.83,0,0,0-13.38,19.19c-4.47,10.79-11.5,14.08-21.15,12.44-8.75-1.48-15.42-9.87-15.9-20.83-.86-19.49,6-37.46,12.77-55.06,14.64-38.08,41.18-66.79,74.54-89.46,17.42-11.85,35.8-21.93,56.88-25.8,19.32-3.54,38.92-4.63,58,.13,26.08,6.5,43.24,25,56.56,47.16,18.3,30.42,26.47,64,28.8,99.13C3762.79,1689.72,3762.17,1700.83,3762.17,1711.9Z" transform="translate(-0.39 -1273.71)"/><path d="M1418.45,1662.62c-7,26-13.91,50.72-20.4,75.51-10.39,39.66-19,79.81-33.5,118.32-3.37,9-7.2,17.35-14.57,24-22.16,19.89-53.38,15.52-69.13-9.86-7-11.2-8.69-23.45-8.33-36.39.76-27.52,5.39-54.5,11.54-81.18,29.8-129.31,69.06-255.8,115-380.22,8.91-24.11,18.09-48.41,33.92-69.18,6.94-9.12,13.81-18.16,24.11-24.52,18.09-11.16,35.54-3.13,45.39,8.17,9.47,10.87,13.83,24.19,10.74,39.57-10.29,51.23-29,100-42.5,150.32q-11.41,42.62-24.22,84.85c-2.51,8.31-.66,13.26,5.83,18.93,43.62,38.13,81.55,82,122,123.24,11.41,11.64,22.78,23.35,33.5,35.61,14.37,16.45,20,35.7,15,57.29-4.18,18.21-14.56,31.64-33.12,36.62-20.1,5.4-36.7-2.48-49.06-17.71-38.41-47.35-78.9-93.09-112.5-144.21C1426.26,1668.76,1424.52,1665.34,1418.45,1662.62Z" transform="translate(-0.39 -1273.71)"/><path d="M2135.6,2131.65c.94-73.81,2.66-142.26,7.42-210.57,2.15-31,6.3-61.79,19.57-90.58,9-19.53,20.44-26.37,38.18-19.31,3.61,1.44,7.09.41,10.73-.68a174.45,174.45,0,0,1,27.71-5.51c35.4-4.65,59.31,12,77.57,40.11,14.92,22.93,22.08,48.69,27.06,75.17,11.36,60.41,9.9,121.52,9.91,182.56,0,28.53-2.64,56.73-10.19,84.26-9.47,34.48-27.35,63.71-56.91,84.63-20.46,14.48-42.65,25-68.72,23.47-6.63-.38-11.23-.12-14.34,8.12-6.3,16.73-21.65,26.29-34.79,24.21-18.11-2.86-30.69-16.18-32.72-35.27-.71-6.79-.46-13.69-.47-20.53C2135.58,2223.26,2135.6,2174.79,2135.6,2131.65Zm71.83-99.13c0,64.68,0,111.08,0,157.48,0,16.59,1.33,16.86,17.17,10.48,25.06-10.09,37.53-28.85,41.56-54.85a246.53,246.53,0,0,0,3-37.75c.08-49.58-3.8-99-7.47-148.35-1.56-20.89-4.41-41.9-12.49-61.63-5.66-13.82-12.11-17.43-26.75-16.62-6,.33-8.39,2.58-8.77,8.43-.47,7.35-2.31,14.65-2.38,22C2210.86,1958.08,2206.39,2004.37,2207.43,2032.52Z" transform="translate(-0.39 -1273.71)"/><path d="M1853.65,1706.85c-7.44,13.83-9.1,26.38-12.58,38.24-7.11,24.19-13.2,48.68-20.08,72.94-3.9,13.73-8.89,26.9-19.89,37.08-19.06,17.63-46.35,13-58.2-10.25-8.07-15.81-8.2-32.6-5-49.34,7.68-40.31,19.49-79.58,30.56-119,24-85.59,41.68-172.68,61.16-259.35,5.43-24.14,9.43-48.64,17.23-72.21,1.82-5.48,3.27-11.29,6.2-16.17,5.56-9.25,12.79-16.49,24.94-16.64,12.75-.16,21.07,6.78,26.19,17a91.6,91.6,0,0,1,10,37.79c1,28.09-3.56,55.53-8.22,83q-14.52,85.53-33,170.31c-1.77,8.11.91,13.12,6.82,17.5,40.19,29.75,69.77,69.8,102.47,106.69,21.08,23.78,23.36,52.16,10.68,81.4-5.48,12.64-15.26,20.86-29,20.93s-24-7.45-29.23-20.38c-12.93-31.76-37.43-55.68-56.15-83.5C1871,1731.59,1863.12,1720.5,1853.65,1706.85Z" transform="translate(-0.39 -1273.71)"/><path d="M1101.36,1566.58c0,11.1.44,22.28-4,32.71-6.06,14.34-15.77,24.75-32.11,26.83-17.06,2.19-30.85-4.58-38-19.52-26.65-55.56-69.45-98.35-110.47-142.63-11.82-12.76-23-26-30.06-42.15-7.59-17.31-4.35-35.31,8.29-48.21a23.36,23.36,0,0,1,19.89-7.38c28.28,2.84,54,12.36,76.54,29.81,29.17,22.53,56,47.39,78.55,76.73C1091.38,1500.54,1101,1532,1101.36,1566.58Z" transform="translate(-0.39 -1273.71)"/><path d="M374.59,1555.7c-24.2-3.87-48.66-7-72-14.94-28.87-9.76-56.07-23.54-83.46-36.81-24.22-11.73-30.14-44.77-11.36-64a26.3,26.3,0,0,1,21.54-8c27.21,2.16,54.24,5.39,81.1,10.8,18.46,3.73,37.46,5,56.42,5.35,16,.33,31,3.85,44.88,12.49,19.09,11.91,27,28.93,24.42,50.77-2.36,19.62-13.67,32-32.39,38.72C394.17,1553.5,384.9,1556.33,374.59,1555.7Z" transform="translate(-0.39 -1273.71)"/><path d="M3633.9,2703a54,54,0,0,1-6.65,27.3c-8.88,16-22.35,22.78-40.6,21.27-17-1.4-25.92-11.76-32.23-26.16-10.85-24.75,5.91-57.78,18.89-69.23,13.31-11.74,35.14-9.06,46.87,4.27C3631,2672.67,3633.67,2687.38,3633.9,2703Z" transform="translate(-0.39 -1273.71)"/></svg>