<svg id="圖層_1" data-name="圖層 1" xmlns="http://www.w3.org/2000/svg" viewBox="0 0 3655.2 1342.89"><title>我是誰</title><path d="M-3661.65,1711.37c-1.1-6.35-2.09-11.55-2.89-16.77-3.48-22.47,11.87-45.53,33.92-51,6.28-1.55,12.63-1.73,18.74.46,25.88,9.27,49.3,22.6,65.56,45.37,21.34,29.88,27.82,62.74,13.27,97.34-14.86,35.35-43.67,52.22-80.82,56.73-46.54,5.65-90.77-3.73-134.06-19.86-32.25-12-62.42-28.41-93.05-43.85-6.44-3.24-12.8-9.66-19.76-8.14-6.39,1.39-10.18,9.09-15.22,13.9-6.76,6.44-13.27,13.14-20.16,19.43-11.28,10.31-24.21,17.71-39.48,20.17-26.93,4.35-48.77-4.38-64.1-27-13.51-19.93-17.48-42.43-13.4-66,4.57-26.31,22.87-40.85,49.91-41a99.58,99.58,0,0,0,12-.38c4.27-.55,8.45-1.76,12.4-2.62,1.6-2.6-.13-4.12-1.24-5.64-52.2-71.73-84.33-152.32-105.18-237.91-.39-1.61-.83-3.22-1.11-4.86-.78-4.58-3.15-5.76-7.75-4.78-17.58,3.75-35.23,7.12-52.85,10.69-40.12,8.14-80.22,16.39-120.37,24.39-7.17,1.43-14.55,1.77-21.8,2.82-17,2.47-21.36,7.17-20.78,24.24,1,30,.46,60,.66,90,0,7.67,0,15.33,0,23,.08,9.52.6,9.92,9.45,8.21,15-2.9,30-6,45.11-8.62s30.49-3,45.54,1.32c27.11,7.72,38.9,31.81,28.13,58-8.21,19.93-23.3,32.89-43.13,40.61-15.26,5.94-31.4,8.77-47.14,13-9,2.42-18.14,4.27-27.21,6.38-11.56,2.7-13.85,5-15.38,16.45-3.36,25.42-6.41,50.88-9.85,76.29-4.08,30-6.79,60.35-13.12,89.9-6.92,32.37-21.4,61.73-47.72,83.5-22.5,18.6-48.82,25-77.54,22.54-32.85-2.8-62.9-14-91-30.83-37.15-22.19-52.71-55-47.26-97.85a287.68,287.68,0,0,1,7.78-39.14c4.75-17.47,15.47-26.09,32.8-26.75,16.95-.64,30.48,8.33,36.11,24.43,3,8.48,4.95,17.3,7.89,25.78,8,23,29.91,39.37,53.4,40.29,12.71.49,19.41-4.14,22.63-16.37,7.79-29.63,14.84-59.46,19.59-89.74a201.9,201.9,0,0,0,2.57-40.32c-4.12-1.2-7.9.07-11.67.85-36.5,7.58-72.86,15.86-109.59,22.3-17.43,3-34.89,5.27-52.65,2.83-13-1.78-25.4-5.42-36.78-12-15.43-9-18.49-18.78-11.36-35.2a36,36,0,0,1,17.33-18.51c24.42-12.45,50-21.91,76-30.33q58.92-19.08,117.77-38.39a67.09,67.09,0,0,0,9.37-3.41c6.71-3.35,10.69-8.4,10.88-16.46.83-34.64,1.91-69.28,3-103.92.35-11.66,1.1-23.31,1.36-35,.17-7.45-.38-8-7.9-7.94-18.33.09-36.66.22-55,.65-41.12,1-81.78-4-122.42-9.27-29.38-3.81-58.71-8-88.06-12a99.15,99.15,0,0,1-11.78-2.12c-16.15-4.27-25.05-15.7-25-31.78.07-16.49,9.49-28.38,25.8-32.34,10.73-2.61,21.81-2.68,32.72-3.68,47.42-4.37,94.89-8.23,142.34-12.31,24.54-2.11,49.1-4.18,73.62-6.51,10.26-1,20.45-2.7,30.7-3.86,5.16-.58,7.32-3,7.6-8.28.94-18.29,2.24-36.57,3.5-54.85,2.8-40.47,12.78-79.42,24.71-118,4.43-14.33,13.49-24.27,25.7-31.89A21.61,21.61,0,0,1-4274,1182c.52,5,1.22,10.14.35,15-5.52,30.24-.76,60.46-.16,90.68.38,19.31,1.72,38.61,2.54,57.91.72,16.86.68,16.89,16.54,13.42q89.74-19.66,179.46-39.37c9.59-2.11,9.31-2.23,8.76-11.65-1.13-19.28-3.35-38.5-2.85-57.87.63-24.51,4.76-48.32,13.4-71.32,2.48-6.61,5.63-12.84,10.38-18.09,9.74-10.74,21.67-15.35,36-11.73,14.15,3.58,21.86,13.54,24.59,27.33,5.44,27.43,10.46,54.94,15.71,82.41,1.69,8.82,3.91,17.56,5.21,26.44.83,5.65,3.28,6,8.17,5,41.86-7.93,83.79-15.53,125.47-24.4,7.47-1.59,15-3.29,22.74-2.55,23.69,2.25,39.69,23.37,42.14,42,3.84,29.37-12.8,56.62-41.11,65.33-38.81,12-77.94,22.89-116.94,34.23-11.26,3.28-11.55,3.58-9.57,15.13,1.7,9.88,4.74,19.42,8.09,28.83,15,42.19,33.92,82.55,57.78,120.5,3,4.79,6.47,9.3,9.79,13.88a11.34,11.34,0,0,0,2.41,1.88c3.56-1.78,5.18-5.2,7.34-8,29.1-37.73,57.46-76,87.61-113,14.42-17.65,32.94-28.77,54.82-34.66,16.61-4.48,30.31-.17,40.88,13.35,9.89,12.63,10.76,29.85,2.58,44.16a24.11,24.11,0,0,1-2.14,3.38c-26.35,32.1-45,69.24-67.31,103.93-14.26,22.12-27.82,44.69-41.71,67-3.57,5.75-3.73,5.94,1.61,9.28a298,298,0,0,0,104.57,40.75A36.72,36.72,0,0,0-3661.65,1711.37Z" transform="translate(4674.03 -854.7)"/><path d="M-3234.74,2037.17c-1,11.53-2,21.76-2.72,32-1.23,16.61-1.88,33.27-3.59,49.83-2.08,20.1-11.6,35.56-31.48,42.29-25,8.46-51.16-6.21-58.55-32.45-3.72-13.19-4.79-26.84-5.18-40.52-.81-28.2,3.26-55.86,9.93-83.1,12.75-52,25.95-104,39.24-155.92,8.18-32,33.84-52.08,66.89-53,13.77-.39,23.72,5.53,28.92,17.22,5.29,11.88,3.08,22.89-6.71,32.91-1.86,1.9-3.87,3.66-5.91,5.37a21.89,21.89,0,0,0-8,14.52c-3.56,27.4-7.26,54.79-10.7,82.21-.93,7.42,1.14,10.74,8.3,14.08q48,22.4,96.09,44.6a39.65,39.65,0,0,0,3.66,1.59c2.69,1,4.6.46,4.69-2.87q.11-3.51.11-7v-311c0-1.67-.11-3.34,0-5,.27-4-1.3-5.88-5.61-6.3-18.22-1.8-36.4-4-54.61-5.94-33.13-3.55-66.14-7.71-98.08-17.78-2.85-.9-5.73-1.8-8.49-3-15.23-6.33-22.28-18.22-20.76-34.88,1.37-15.17,11.37-26,27.5-28.61,11.17-1.78,22.5-2.58,33.79-3.52,39.49-3.27,79-6.62,118.5-9.56,33.21-2.46,66.48-4.3,99.71-6.61,25.25-1.76,50.47-4,75.72-5.71,10.76-.75,20.8-4.43,31.15-6.85,9.91-2.31,19.84-2.77,29.7-.42a53.15,53.15,0,0,1,40.18,44.85c3.22,23.59-7.84,45.34-29.13,56.64-13.36,7.1-27.87,10.86-42.64,13.67-22.67,4.31-45.65,5.28-68.62,6-15,.46-30,0-45,.15-7.08.07-7.33.29-6.77,7.38,2.26,28.22,4.67,56.42,7.07,84.63q4.41,51.78,8.88,103.54c.73,8.6.64,8.61,9.55,6.66a275,275,0,0,0,72.6-27.58c14.63-8,28.69-17,44.09-23.48,7.08-3,14.23-5.51,22.07-5.86,28.54-1.27,51,17,55.52,45.27,3.7,23.33-6.59,44.32-27.71,53.32a735.17,735.17,0,0,1-126.34,40.43c-11.29,2.55-23.12,2.77-34.71,4-8.63.91-9.14,1.1-8.71,9.56q1.8,35.43,4.09,70.83c.53,8.21.87,8.23,9.24,10.06,39.34,8.63,78.85,16.41,118.58,23.09a77.73,77.73,0,0,1,22.65,7.52c23.61,12.14,36.33,36.26,32.24,61.11-4.33,26.37-23.93,45.33-50.64,49.53a72.41,72.41,0,0,1-25.81-.31c-79.5-16-155.79-41-226.48-81.5a587,587,0,0,1-95.94-68.29C-3226.12,2042.21-3229.18,2039.13-3234.74,2037.17Z" transform="translate(4674.03 -854.7)"/><path d="M-1861.39,1948.5q0-40,0-80c0-9-.07-9.23-9.29-10-24.22-2-48.49-3.36-72.53-7.14-18.54-2.92-36.44-8-53.22-16.45-20.71-10.42-30-28-27.65-50.71a38.36,38.36,0,0,1,10.72-23.12c11.93-12.44,26.94-17.94,43.89-18.59a19.56,19.56,0,0,1,12.13,3.88c8.47,5.9,18,8.45,28.27,8.4a631.64,631.64,0,0,0,64.78-4c6.37-.68,6.81-1.29,6.88-8.39.11-12.33,0-24.66.05-37,.08-13-.3-26,1.54-38.9a51.55,51.55,0,0,0-.68-19.85c-1.8-7.11-5.74-12-12.88-13.84a136.18,136.18,0,0,0-14.56-3.33c-29.34-4.39-55.4-17.13-79.57-33.25-27.43-18.3-26.51-58.36.63-77.23a65.86,65.86,0,0,1,27.55-11.18c7.14-1.12,14.13-.39,19.78,4.58,10.65,9.35,23.15,12.68,37,12.3,4-.11,8-.08,12-.15,11.53-.19,11.59-.19,12.56-12.14,1.11-13.61,2-27.23,3.17-40.84a62.33,62.33,0,0,1,9-28.28c15.76-25.24,50.42-28.69,69.14-6.86,7,8.21,9.94,17.86,9.82,28.62-.17,15.66,0,31.32-.19,47-.15,12.81.24,10.25,10.7,12.08,13.1,2.31,26.35,3.77,39.34,6.8a73.81,73.81,0,0,1,23.9,9.81c32.17,21,32.55,63.57.74,85.19A72,72,0,0,1-1717,1637.1c-9.84,1.7-19.69,3.32-29.59,4.57-4.77.61-6.94,2.21-6.9,7.48.22,28.32,0,56.65.15,85,0,6.05.72,6.64,6.27,5.67,18-3.14,36.21-5.17,53.5-11.86a62,62,0,0,1,35.47-2.48c37,7.79,53.46,52,31.42,83.93-6.45,9.35-15.11,15.77-25.57,20-12.71,5.18-26,8.27-39.37,11-16,3.26-31.82,7.3-48.16,8.38-4.81.32-7,2.32-7.44,7.32q-5.19,58.2-10.75,116.38c-2,20.88-4,41.75-6,62.62-.82,8.66-.66,8.86,8.26,9.32,44.28,2.25,88.22,7.54,132,14.56,25.29,4.06,41.17,22.91,40.81,47.72-.31,21.06-13.68,38.08-34.66,43.4a256.1,256.1,0,0,1-43.33,7c-58.64,4.53-117.18,2.47-175.49-4.62a611.6,611.6,0,0,1-93.88-18.85A201.56,201.56,0,0,1-1989,2106.4c-17.23-11.72-22.1-32.88-12.49-51.21,5.19-9.9,13.16-15.53,24.2-17.2,13.34-2,26.63,0,39.9.52,23,.87,46-.65,69-.39,6.8.08,7-.29,7-7.64C-1861.35,2003.15-1861.39,1975.83-1861.39,1948.5Z" transform="translate(4674.03 -854.7)"/><path d="M-2164.85,2062c4.85-44.19,3-88.55,3.76-132.85,1-62.64,3.87-125.22,7.33-187.77,2.42-43.57,4.32-87.17,6.76-130.74,2.47-43.9,4.62-87.84,8.21-131.65,3.45-42.14,8.57-84.13,13-126.19.1-1,.26-2,.35-3,.84-9.59.85-9.5-8.83-7.15-17.14,4.15-34,9.57-51.58,11.73a51.12,51.12,0,0,1-21.72-1.93,35.42,35.42,0,0,1-19.25-52.82c4-6.25,9.26-11.29,15.06-15.87q66.28-52.37,132.51-104.8c12.31-9.72,23.29-20.93,35.18-31.13,10.65-9.13,22.7-15.08,37-15.75a56,56,0,0,1,53.94,32.59,56.33,56.33,0,0,1-10.21,63.09c-14.61,15.12-30.69,28.63-47.34,41.47-3.69,2.84-7.33,5.8-11.22,8.36-11.26,7.43-16.45,17.79-16.27,31.25.14,10.66-.38,21.32-.52,32-1,77.64-1.88,155.28-3.13,232.91-1.28,80-3,159.92-4.44,239.89-1.15,63.3-1.86,126.61-3.48,189.91-.68,26.62-2.6,53.25-5.07,79.77-2.78,29.82-25.91,50.36-54.86,50.18-28.74-.17-51.63-21.27-54.87-50.54A126.6,126.6,0,0,1-2164.85,2062Z" transform="translate(4674.03 -854.7)"/><path d="M-3254.81,1143.07c-.22-59.06,5.83-108.27,13.9-157.29,2.27-13.79,4.82-27.54,7.2-41.31q8-46,50.72-64.62c24.16-10.56,48.65-19.89,75-23.7,32.79-4.75,62.62,2.29,90.61,19.86,42.92,26.94,63.9,66.15,68,115.89a1016.31,1016.31,0,0,1,3.27,114.81c-1.29,41.63-4.29,83.18-11.28,124.27-7.7,45.27-32.62,78-74.52,97.29a466.24,466.24,0,0,1-87.71,30.11,89.36,89.36,0,0,1-21.77,2.78c-23.22-.31-41.83-9.72-55.58-28.51-5-6.77-9.25-14.08-11.32-22.14-3.24-12.67-8.65-23-20-30.77-9.87-6.76-14.33-18-17.48-29.54-3.28-12-4.37-24.3-5.23-36.54C-3252.89,1187.08-3253.91,1160.44-3254.81,1143.07ZM-3154,1002.8c0,19,0,38,0,57,0,9.84.11,10,10.21,9.13,9.93-.85,19.82-2.08,29.74-3.15,18.5-2,37-4.17,55.52-5.87,5.6-.51,7.23-2.61,6.86-8.11-1.16-17.6-1.55-35.26-2.8-52.85-1.91-27-15.06-46.45-40.15-57.16-16.37-7-33.52-8-51-5.23-8,1.24-8.37,1.58-8.4,10.31C-3154,965.49-3154,984.15-3154,1002.8Zm97.13,175.68c-.3-4.5-.54-8.15-.78-11.81-.28-4.35-2.49-6.36-6.95-6.79-28.13-2.71-56.23-5.64-84.35-8.4-5.75-.57-6.26,0-5.81,5.92,1.27,17,1.17,33.93.88,50.92-.17,10.33-2.37,20.53-1.71,30.9.63,10,6.23,15.67,15.38,13.59,19.49-4.44,38.8-9.86,55.81-20.9C-3064.85,1219.22-3056.12,1200.77-3056.87,1178.48Z" transform="translate(4674.03 -854.7)"/><path d="M-1214,1850.14c-2.86-65.41,1.41-117.13,9.75-168.54,13.12-80.77,35.86-159,61.73-236.5A1041.09,1041.09,0,0,0-1106.16,1305c3.54-19.1,3.09-38.48,1.81-57.8-.55-8.29-2.26-16.51-2.67-24.81-1.16-23.43-13.14-40.86-30.49-55.1-19.2-15.74-41-23.35-66.32-23.4-46-.09-86,15-121.78,43.23-24.49,19.31-35.65,45-37.25,75.4-.81,15.33.4,30.59,2.56,45.82a132.7,132.7,0,0,1,.93,21.93c-.34,13.14-7.27,21.48-19.51,24.39-13.92,3.31-25.44-1.24-31.2-13.33-9.34-19.63-16.78-39.85-17.78-62-1-23.06-.38-46,4.8-68.55,9.88-43.06,33.69-76.4,70.69-100.24,34.11-22,71.72-34.95,111.57-41.52,29.81-4.91,59.85-5.64,89.39,1.06,53.05,12,89.46,45.24,113.59,92.89,12.08,23.86,16.89,49.53,18.38,76.14,3.12,55.61-6.17,109.57-21,162.76-19.07,68.3-38.19,136.59-58.2,204.63-18.86,64.12-27.08,129.59-27.61,196.19-.3,38.32,0,76.65,0,115a89,89,0,0,1-1.08,16.93c-3.89,20.42-18.29,33.81-37.91,35.16-22,1.51-39.1-9.37-45.91-29.27a59.24,59.24,0,0,1-2.88-19.68C-1214,1892.86-1214,1864.87-1214,1850.14Z" transform="translate(4674.03 -854.7)"/><path d="M-2603.11,1991c.78-31.64,1.26-63.27,2.32-94.89.71-21.08,8.09-39.69,20.69-56.21,12-15.79,28.45-19.59,46-10.28,6.3,3.35,11.38,3.41,17.71.88,19.44-7.77,38.67-16.32,59.42-20.26,14.24-2.7,28.53-2.64,42.47,1.76,30.84,9.73,47.63,31.75,52.81,62.83,3.88,23.33,4.86,47,5.76,70.64,1.89,49.63.94,99.23-6,148.52a154.33,154.33,0,0,1-12.56,44c-14.71,31.61-39.33,50.38-73.44,57-25,4.86-49.72,2.21-74.37-2.26-16.36-3-32.65-6.34-48.93-9.76a70.9,70.9,0,0,1-13.29-4.16c-23.85-10.16-35.06-32.64-29-57.82.54-2.25.87-4.72,2-6.64,8.8-14.44,8.51-30.41,8.41-46.45C-2603.23,2042.26-2603.11,2016.62-2603.11,1991Zm74.56,9.07c0,24.31-.06,48.61,0,72.91,0,7.72.24,7.87,7.83,7.94,11.32.12,22.64.19,33.95-.07,13.18-.31,18.13-4.95,18.79-18,1.05-20.94,1.75-41.9,2.53-62.85,1-26.92,1.87-53.86,2.88-80.79.36-9.45-.72-10.72-9.95-9.32-15.43,2.33-30.82,4.94-46.23,7.4-9.77,1.56-9.82,1.54-9.83,11.87Q-2528.58,1964.6-2528.55,2000.05Z" transform="translate(4674.03 -854.7)"/><path d="M-1694.57,1417c-41.18-2-84.16-2.81-126.79-8.28-35.37-4.53-70.32-11.26-103.34-25.49-20.27-8.73-38.63-20.82-57.18-32.61-22.26-14.14-17-40.77,1-52a64.49,64.49,0,0,1,11.73-5.45c38-14.16,77-17.15,117-11.16,43.43,6.52,87.18,10.46,130.82,15.25,16.53,1.82,33,3.91,49.52,6a75,75,0,0,1,21,6.19c25.36,11.24,35,34.68,32.51,57.54-3,27-20.59,44.41-46.58,48.67C-1674.26,1417.13-1683.55,1416.72-1694.57,1417Z" transform="translate(4674.03 -854.7)"/><path d="M-2406.59,1218.48c-57.37-1.13-110.51-3.93-163-14.15-22.81-4.44-44-13.18-64.64-23.26-13.08-6.38-19-19.47-16.82-34.29,2.23-15,11.48-25.09,26.29-27.54a895.73,895.73,0,0,1,96.25-10.74c35.23-2,70.43-4.65,105.69-6.06,23-.92,46-1.19,69,.22,24.32,1.5,42.33,14.2,50.36,37.75,7.84,23,3.35,44.14-14,61.67-9.27,9.35-21,14.09-34.1,14.71C-2371.32,1217.73-2391,1218-2406.59,1218.48Z" transform="translate(4674.03 -854.7)"/><path d="M-3629.5,1161.44c-15.56.06-27.6-5.76-35.27-20-12.73-23.62-29.23-44.56-47.9-63.7s-37.72-37.65-56.76-56.3a213.23,213.23,0,0,1-30-36c-6.63-10.2-7.65-21.13-3.71-32.52,5.09-14.68,17-21.41,32.54-20.41,21.46,1.39,40.82,8.55,59.59,18.42,41.13,21.63,75.69,50.61,102,89.21a116.39,116.39,0,0,1,17.42,38.95c1.54,6.47,3.09,13,4.8,19.38,5.4,20.31-1.64,37.34-14.52,52.36C-3607.93,1158.5-3617.68,1161.39-3629.5,1161.44Z" transform="translate(4674.03 -854.7)"/><path d="M-4301.92,1098.92c-30.57-.4-60-7-88.86-16.67-24.64-8.29-48.18-19.22-71.73-30.17-14.82-6.9-20.43-21.06-17.2-37.55,2.75-14.06,15.94-25,30.51-25.92,10.05-.62,19.93,1.23,29.83,2.31q60,6.58,120,13.64c14.78,1.73,28.63,6.25,40.52,15.51,26.22,20.42,23.06,55.87-6.26,71.68C-4276.67,1098-4289.06,1099.53-4301.92,1098.92Z" transform="translate(4674.03 -854.7)"/><path d="M-2437.57,1463.27c-31-4-61.27-5.44-91-11.74-18.86-4-34.37-13.87-48.61-26.22a23.29,23.29,0,0,1-6.39-8.83c-6.21-15.18-2.76-28.79,7.43-40.85s22.71-18.3,38.91-13.71a48.59,48.59,0,0,1,12.63,5.87c7.37,4.64,15.17,5.69,23.87,4.53,23.73-3.14,47.5-6.19,71.34-8.23,19.93-1.7,37.65,4.05,50.46,20.5,11.52,14.8,14.43,31.15,7.25,48.77-6.78,16.64-19.63,25.19-37.12,28C-2418.69,1462.92-2428.66,1461.8-2437.57,1463.27Z" transform="translate(4674.03 -854.7)"/><path d="M-2450,1691.4c-22-3-46.49-3.69-69.79-11.37a122.16,122.16,0,0,1-43.59-25.73q-16.62-14.94-12.12-36.94c5.11-24.88,29.5-39.95,53-30.84,15.13,5.87,30.21,7.07,45.94,7,19.63-.13,39.36-1.77,58.85,1.62s33.65,14.07,40.09,33.27c5.8,17.31-.61,36.92-15.23,48.3a53.53,53.53,0,0,1-22.42,10.54A239.46,239.46,0,0,1-2450,1691.4Z" transform="translate(4674.03 -854.7)"/><path d="M-1710.92,1180.45c-1.19,24.26-10.8,43.37-32,55.58-12.15,7-25.26,8.49-38.6,4.16s-22.07-13.07-26-26.76c-7.72-27.24-12.84-55.09-19.46-82.59a12.45,12.45,0,0,1-.31-5.92c3.76-13.43,6-27.37,13-39.73,13.29-23.49,44.9-26.78,61.2-5.39,20.6,27,36,56.78,41.13,91C-1711.43,1174.07-1711.23,1177.4-1710.92,1180.45Z" transform="translate(4674.03 -854.7)"/><path d="M-2495.29,898.76c31,1.82,56.81,13.3,73.87,40.39,11,17.5,13.1,36.06,3.94,55.14-11.32,23.57-35.6,30.58-57.73,16.78-6.26-3.9-11.58-8.94-16.88-14a477.51,477.51,0,0,1-35.13-36.85c-20.24-24-2.22-55.18,19-60.19C-2503.92,899-2499.68,899-2495.29,898.76Z" transform="translate(4674.03 -854.7)"/><path d="M-1169.38,2183.52c-8.8-.26-17.18-2.17-24.73-6.76-11.37-6.92-17.79-16.84-17.15-30.46a95.35,95.35,0,0,1,7.74-33.8c12.22-28.09,49.32-27.45,63.63-5.71,12.1,18.38,13.56,38,4.08,57.81C-1142.36,2178.28-1154.55,2183.68-1169.38,2183.52Z" transform="translate(4674.03 -854.7)"/></svg>