<svg id="圖層_1" data-name="圖層 1" xmlns="http://www.w3.org/2000/svg" xmlns:xlink="http://www.w3.org/1999/xlink" viewBox="0 0 7932.57 3335.02"><defs><style>.cls-1{fill:none;}.cls-2{clip-path:url(#clip-path);}.cls-3{fill:#fefefe;}.cls-4{fill:#c5889a;}.cls-5{fill:#c18194;}</style><clipPath id="clip-path" transform="translate(-4203.16 -358.13)"><rect class="cls-1" x="4203.16" y="358.13" width="3670.79" height="3139.64"/></clipPath></defs><title>背框</title><g class="cls-2"><path class="cls-3" d="M8462.76,3692.93q0-1565.71-.19-3131.43c0-8.78,1.68-10.77,9.18-10.76q1827.39.33,3654.8,0c7.48,0,9.18,2,9.18,10.75q-.3,1560.45,0,3120.9c0,8.78-1.69,10.76-9.18,10.76Q10294.66,3692.82,8462.76,3692.93Z" transform="translate(-4203.16 -358.13)"/><path class="cls-4" d="M7854.16,2958.41c-16.61-3.65-33.37-6.36-50-9.86-31.28-6.56-62.6-13-93.77-20.24-29.55-6.87-58.94-14.7-88.4-22.12-24.27-6.1-48.51-12.33-72.82-18.22-4.58-1.1-7.65-2.92-7-8.94,1.06-10.62-1.17-20.92-1.81-31.38-3-47.94-17.34-92.36-32.79-135.83-11.86-33.34-34-60.07-51.29-89.9-8.41-14.47-8.43-15.14,5.41-21.5,35.36-16.25,70.58-32.94,105.94-49.17,44.64-20.49,89.29-41,134.13-60.84,11.16-4.94,22.4-11.07,35.33-6.38,5.94,2.15,10.64-3,13.81-9,3.92-7.35,3.68-14.59-.53-21.87-5.86-10.13-14-13.59-24-11.91-25.1,4.22-48.44,15.65-71.83,26.07-73,32.52-145.71,66.08-218.39,99.63-6.74,3.12-10.64,1.21-14.41-4.86-6.44-10.35-12.76-20.82-19.51-30.89-21.52-32.12-44.61-62.6-70-90.62-4.92-5.43-6.27-9.45.71-14.28,12.55-8.69,24.64-18.28,37.12-27.1,34.57-24.42,66.11-54.78,103.22-74.09,18.86-9.81,37.29-22.12,59.22-21.41,8.18.26,13.46-6.72,15.37-15.55,2-9.26.14-17.92-7.27-23.63-8.74-6.72-18.33-6.47-27.91-3.75-16.78,4.76-32.79,12.28-48.21,21.18-29.52,17-56,40-83.83,60.36-27,19.76-53.91,39.61-80.91,59.31-4,2.9-8,5.58-12.59.47-19.73-22.07-40.24-43.16-58.6-66.91-21.34-27.63-41-57.09-65.48-81.35-30.72-30.41-60.85-61.64-88.48-96-5.41-6.73-12.39-11.67-18.14-18.06-24.85-27.63-50.64-54.3-72-85.88-17.71-26.24-34.21-53.52-55.26-76.5a733.6,733.6,0,0,1-54.79-67.85c-24.82-34.55-48.47-70.45-77.51-100.35-29.38-30.26-51.85-67.61-78.16-101-15.79-20-30.72-41.14-48.41-58.93-27.47-27.63-53.92-56.4-77.77-88.38-3.31-4.45-4.59-8.77-2.54-14.85,2.67-7.9,1.58-15.75-4.83-20.79s-5.46-11.15-3.36-18.27c9.15-31,12.67-63.45,16.73-95.65q7.39-58.82,17.86-116.91c8.16-45.2,17.79-90,28.5-134.45,14.84-61.63,29.43-123.35,45.15-184.67,11.7-45.64,23.31-91.31,33.55-137.41,13.59-61.18,30.34-121.64,34.1-185.29,1.59-26.92.5-54-7.2-79.53-13.45-44.5-44.41-65-81.23-75.14-28.83-7.94-58.21-3.06-87.31-1.78a159.37,159.37,0,0,0-32.57,4.79c-20,5.14-39.86,11-59.65,17.37-64.19,20.63-121.16,54.7-166.62,113.5-26.45,34.21-48.36,72.05-69.74,110.41-28.26,50.67-53.92,103.19-77.65,157-16.52,37.45-32.63,75.15-46.45,114.12-6.19,17.46-12.62,34.81-18.94,52.21l-3.13-.18c-1.93-15.6-4.19-31.16-5.73-46.81-4.61-46.73-11.37-93.08-17.75-139.49-5-36-11-71.86-16.19-107.86-7.49-52.12-17.54-103.61-27.87-155-7.36-36.59-15.26-73.06-26.06-108.57-12.8-42.11-25.48-84.26-50.69-119-14.25-19.64-32.24-31.94-54.63-30.33s-42.62,12.06-60.3,27.87c-31.46,28.14-55.29,63.79-75.49,103.79-33.85,67-51.56,139.92-62.2,215.72-8.12,57.79-8.56,116.37-9.83,174.72-1.48,68.24.95,136.43,5.13,204.54,3.81,62.14,10,123.66,23.84,184.1,10.86,47.28,26.32,91.11,56.1,126.53,4.74,5.64,5.27,8.52-2.26,12a423.4,423.4,0,0,0-99.69,64.1c-74.82,64.36-148.75,130.05-219.43,200.65-43.88,43.82-87,88.74-132.55,130.24q-65.92,60-131.17,121.13c-37.23,35.07-74.64,70-108.15,110.08-44.64,53.42-85.15,111-125,169.32-38.58,56.42-77.71,112.3-118.9,166.2-33.84,44.28-67.32,89-98.63,135.85a16.27,16.27,0,0,1-12,7.45c-49.41,6.78-98.23,17.79-146.89,29.57-37.89,9.17-75.37,20.53-112.53,33.38-40.37,14-79.9,30-116.49,54.84-9.15,6.21-12.64,16-8.56,25.09,4.69,10.44,14.38,14,23.69,7.75,18.73-12.59,38.43-22.44,58.67-31.12,36.78-15.77,74.66-27.1,112.7-37.31,38.39-10.31,77.21-18.42,115.9-27.21,14-3.17,28.08-5.56,42.16-8.09,1.81-.33,4.57-.11,5.54,1.21,1.76,2.42-.08,4.9-1.51,7.2-10,16-18.52,33.08-26.63,50.43-17.95,38.38-34.21,77.7-46.72,119-11.09,36.64-20.42,73.86-26,112.24-1.28,8.91-5.21,12.5-12.55,14.86-56.77,18.22-113.42,36.83-169.61,57.49-60.45,22.22-119.63,47.68-175.37,83.15-15.95,10.15-32.31,20.07-45.57,35-6.78,7.65-6.28,17,0,25,5.6,7,13.61,7.7,20.62,1.95,6-4.89,11.87-9.95,18.14-14.28,39.4-27.25,80.92-48.86,124.14-66.55,45-18.44,90.76-33.92,136.53-49.35,28-9.44,56.35-17.37,84.46-26.37,10.7-3.42,11.74-3.29,10.9,9.84-2.36,36.93-5.36,73.85-3.72,110.92,1.16,26,4.25,51.95,11,76.84,6.38,23.61,7.21,24-12.62,32.28-50.22,20.88-100.19,42.52-149.06,67.47-23,11.73-46.33,22.73-66.41,41-13.29,12.08-20,34.06-15.37,50.85,3.08,11.14,11.73,18.91,19.7,17.72,8.72-1.3,16.8-12.42,16.42-24.07-.21-6.33,1.87-9.93,5.81-13.56,14.2-13.06,30.54-21.82,46.69-30.35,55.17-29.15,112.12-52.79,170.23-72.64,6.35-2.17,9.81-.68,13.27,5.49,6.54,11.69,12.83,23.74,20.57,34.29,44.45,60.68,101.06,98.13,166.63,117.85,48.58,14.61,98.4,17.49,148.14,18.48,93.17,1.87,186.37,1.68,279.55,4.35,59,1.69,116.77,14.56,175.23,20.75,36,3.83,72,8.76,108.15,10.77,24.89,1.38,49.94,2.2,74.57,5.48,43.75,5.83,87.12,15.54,130.7,23.23,35.4,6.24,70.81,12.63,106.34,17.63,44.47,6.26,88.94,12.41,133.54,17.45,47.27,5.35,94.64,8.8,142,13.13,31.12,2.85,62.3,4.9,93.42,7.91,43,4.17,86.06,8.44,129.2,11.13,21.27,1.33,42.59,1.25,63.8,3,35.54,2.88,71.14,2.57,106.67,2.95,24.81.27,49.79-1.33,74.68-3.19,40.8-3,81.19-9.54,121.61-16.14,33.8-5.53,67.45-12.23,101.11-19,37.86-7.58,75.65-15.65,113.18-25q63-15.75,124.78-37.91a894.16,894.16,0,0,0,173.55-84.47c67.09-42,130.21-91.1,187.5-150.33,36.54-37.78,70.37-77.91,92.92-129.16,6.33-14.38,13.16-28.89,16.28-44.87a263.89,263.89,0,0,0,3.95-33.42c.66-10.14,5.13-12.39,12.6-10.65,8.44,2,16.91,3.76,25.32,5.86,29.13,7.28,58.16,15.13,87.38,21.86,34.11,7.85,68.29,15.3,102.79,20.63,31.6,4.89,63.27,8.82,95,12.24,10,1.08,18.84-7,19.83-16.69C7870.79,2970.14,7864.55,2960.69,7854.16,2958.41ZM6446.64,2734.16c-6.44,0-6.43-10,0-10S6453.08,2734.16,6446.64,2734.16Z" transform="translate(-4203.16 -358.13)"/><path class="cls-3" d="M7473,2925c-21.92-1.06-43.79-3.69-65.71-4.4-66.26-2.15-132.37.53-198.09,11.39-54.11,8.94-107.74,20-156,52.86-3.84,2.62-7.84,4-12.36,1.76-6.22-3.12-10.73-7.47-11.36-16.11-.68-9.36,2.8-15.56,9.48-20.11,30.73-20.92,63.77-34.75,98.24-44.22,44.41-12.2,89.49-18.79,134.85-24,66.66-7.73,133.34-11.13,200.21-5.64,8.73.72,7.88-3.4,6.33-9.91-6.52-27.38-15-54-24.12-80.26-5.06-14.45-9.63-30.37-20.35-40.92-8.52-8.38-16.19-17.3-22.23-28.2-11.77-21.24-21-44.31-34.41-64.41-4.13-6.19-7.19-6.75-13.26-3.86-55.39,26.39-111.57,50.25-168.23,72.67-42.44,16.79-86.21,29.51-126.26,54.12-8.61,5.29-16.94,2.48-21.7-6.55-4.63-8.8-3.13-17.26,2.88-24.5,12.29-14.8,26.91-25.55,43.57-32,47.59-18.52,95.45-36.13,142.91-55.13,33-13.21,65.51-28.08,98.19-42.37,3.28-1.44,10.08-3,5.49-8.88-11.4-14.64-18.09-33.83-32.53-45.47-12.14-9.79-22.42-22-31.72-35.36-5.87-8.46-12.54-16.21-18.08-24.95-5.79-9.11-11.09-9-19.19-3.37-21.43,15-43.29,29.1-65.3,42.86-32.55,20.34-65.42,40-98.06,60.15-4.92,3-12.2,5-13.43,11.3-3.59,18.56-15.68,20-28.1,22s-23.92-3.92-27.81-14.92c-4.06-11.47.13-23.62,12-32.47,9-6.71,18.28-12.8,27.62-18.77,54.86-35,111.69-65.68,166.08-101.83,7.09-4.71,8.47-7.61,1.89-14.77-18.79-20.44-37-41.55-53.74-64.43-17.31-23.7-35.39-46.6-55.32-67.4-11.92-12.44-24-24.68-35.61-37.56-48.09-53.48-88.27-115.49-133.86-171.68-6.19-7.63-12.08-15.52-19.15-22.15-34.08-32-67.08-65.41-96.16-103.67-29.43-38.72-56.95-79.38-87.76-116.73-18-21.83-34.64-45.28-51.6-68.29q-39.16-53.08-77.9-106.6c-26-36-56.15-67.77-78.87-107.06-2.09-3.6-4.78-4.69-8.17-5.7-11.92-3.57-22.13-10.87-30-22-7.16-10.15-8.72-21.74-4-33.94,4.55-11.71,12.48-19.37,23.41-18,10.58,1.3,13.75-4.56,16.55-14.57,8.42-30.18,12.17-61.4,15.9-92.62,8.94-74.92,22.36-148.78,38.85-221.82,14.95-66.24,31.42-132,48.33-197.63,21.6-83.89,44.74-167.25,63.82-252,8.5-37.79,15.89-75.69,14.74-115.14-.83-28.79-11.78-44.38-35.73-51.08-11.42-3.19-23.1-4.07-34.66-3.8-39.67.9-78.66,7.08-116.81,20.79-32.49,11.69-64.67,23.89-94,44.57-44.46,31.36-76.1,77.39-104.71,126.72q-86.16,148.55-142.93,315.44c-23.22,67.92-45.17,136.59-47.17,211.33-.49,18-13.74,30.74-28,29.89-14.72-.88-25.06-13.94-25.44-32.73-.41-20.28-2.06-40.43-3.5-60.63q-7.73-108.32-20.08-216-12.54-108.83-29-216.89c-11.52-75.13-25-149.85-43.21-223.22-10.06-40.51-22.5-79.93-41.56-116-11.77-22.29-19.36-24.59-39.56-14-22.76,11.95-38.34,33.21-53.1,55.38-52.65,79.06-76,171.18-85.9,269-5.76,57-6,114.4-6.23,171.75-.06,49.17,1.07,98.27,4,147.34,2.39,39.66,5.14,79.26,10.4,118.55,6,44.66,12,89.56,28.1,131,13,33.34,27.94,66,65.25,68.1,7.64.43,15.3.78,22.94.54,10.3-.33,20.59-1.92,30.87-1.75,11,.19,18.31,9.27,18.49,21.35.19,12.62-7.27,21.74-18.5,22.73-20.23,1.8-40.49,4.29-60.68,0-11.17-2.39-18.22,8-27.53,11.39-32,11.74-61.43,29.53-88.15,53.42-19.83,17.74-39.08,36.44-60.25,52-79.17,58.15-152.94,124.51-222,198.16-59.61,63.53-123.53,120.94-186.83,179.21-45.78,42.14-92,83.73-133.89,131.28-45.51,51.66-85.48,109.14-125.21,166.8-31.35,45.49-62.3,91.37-95,135.54q-49.72,67.15-99.76,134c-1.68,2.25-4.75,4.55-3.18,7.83,1.49,3.12,4.9,1.44,7.35,1.16,18.51-2.16,37-4.88,55.5-6.84,33.09-3.49,66.21-6.82,99.35-9.78,44.07-3.93,88.17-7.55,132.26-11.11,32.16-2.59,64.26-5.69,96.21-10.92,12.13-2,24.31-5,36.71-3.42,10.11,1.25,17.21,8.42,18.3,18.15a22.29,22.29,0,0,1-13.75,23.08,93.29,93.29,0,0,1-18.39,5.12c-41.77,7.41-83.88,11.09-126,13.86-53.11,3.5-106.18,7.28-159.23,11.91C4888.4,2535.32,4837.22,2542,4786,2548c-5.71.67-11.27,1.55-15.6,8.33a799.74,799.74,0,0,0-111.62,279.57c-1.67,8.54-.22,10.75,7.21,8.2,17.52-6,35.14-11.61,52.8-17,36.94-11.33,73.81-23.05,110.95-33.45,38.43-10.75,77.09-20.33,115.73-30,45.45-11.4,91-22.37,136.46-33.51,14.94-3.65,29.82-7.64,44.85-10.7,11.78-2.41,21.33,4,25.22,15.52,3.33,9.86.23,19.52-9.29,28.22s-20.75,14-31.57,20c-4.43,2.44-9.76,1.88-13.13-2.32-5.34-6.66-11-5.16-17.38-3.55-25.31,6.4-50.72,12.31-76,18.71-44.14,11.14-88.31,22.16-132.35,33.89-34.95,9.31-69.77,19.35-104.56,29.52-35.75,10.45-71.36,21.61-107.12,32.09-7.52,2.2-10.92,6.13-11.32,15.8-.84,20.21-3.29,40.32-4.47,60.52-2.77,47.36-1.6,94.26,11.78,139.87,2.45,8.34,5.18,10.07,12.19,7.34,39.71-15.45,79.88-29.13,120.11-42.6q61.8-20.67,124.49-37.12c58.67-15.33,117.38-30.48,175.6-48,54.68-16.47,109.1-34.14,163.65-51.21,12.68-4,21.77.78,25.17,12.83,3.58,12.69-1.6,22.38-14.95,27.91q-16.9,7-33.82,14c-53.9,22.18-107.92,43.85-163.21,60.94q-63.09,19.48-126.83,35.78c-33.39,8.55-66.61,18-99.93,27-50.82,13.67-101.65,27.3-151.91,43.64-6.45,2.1-8.3,4.41-3.65,11.84,35.82,57.23,83.73,93.37,141.18,113.9,49.91,17.84,101.32,21.17,152.81,22.47,94.5,2.4,189,.85,283.57,4.28,59.38,2.15,117.57,14.83,176.43,21.19,35.08,3.79,70.06,8.7,105.28,10.57,27.23,1.44,54.6,1.82,81.65,5.32,51.16,6.63,102.15,15,153.17,22.93,65.19,10.17,130.35,20.59,195.81,28.27,48.62,5.71,97.32,9.92,146.07,13.72,41.79,3.25,83.64,5.58,125.36,9.8,69.6,7,139.33,11.09,209.13,12.88,64.86,1.66,129.69.83,194.29-8.52,44.83-6.48,89.52-14,134-22.83,39.61-7.87,79-16.89,118.47-25.9,50.92-11.64,101.28-25.73,150.62-44.33a849.73,849.73,0,0,0,177.54-91.82c72.36-49,139.89-105.35,197.79-176.58,28.87-35.51,49.39-76.08,56-125.34C7484,2930.06,7482.29,2925.48,7473,2925Zm-1026.4-190.88c-6.44,0-6.43-10,0-10S6453.08,2734.16,6446.64,2734.16Z" transform="translate(-4203.16 -358.13)"/><ellipse class="cls-5" cx="923.35" cy="2992.04" rx="149.35" ry="0.74"/></g></svg>