<svg id="圖層_1" data-name="圖層 1" xmlns="http://www.w3.org/2000/svg" viewBox="0 0 11915.47 11007.2"><defs><style>.cls-1{fill:#c5889a;}.cls-2{fill:#fefefe;}.cls-3{fill:#c18194;}</style></defs><title>背框1</title><path class="cls-1" d="M4158.87,4843.84c-53.94-12.65-108.53-22.49-162.48-34.79-101.71-23.19-203.42-45.68-304.81-71-96.19-24.25-191.4-51.66-287.26-77.67-79-21.43-157.61-43.22-236.58-63.95-14.94-3.87-24.69-10.19-22.74-31.28,3.57-37.25-3.9-73.44-5.85-110.34-9.75-168.33-56.22-324.71-106.59-477.22-38.67-117-110.16-211.2-166.71-315.92-27.29-51-27.29-53.06,17.55-75.55,115-56.93,229.42-115.62,344.14-172.9,144.93-72,290.19-144.08,435.77-213.66,36.39-17.22,72.79-39,114.71-22.49,19.17,7.73,34.45-10.54,44.84-31.62,12.68-26,12-51.31-1.62-77-19.17-35.5-45.82-47.8-78-41.82-81.57,14.76-157.28,55.17-233.32,91.72-237.22,114.21-473.47,232.28-709.72,350-21.77,10.89-34.44,4.21-46.79-17.22-20.8-36.2-41.6-73.1-63.37-108.59-69.87-112.8-144.93-220-227.47-318.38-15.92-19-20.47-33.38,2.27-50.25,40.62-30.57,79.94-64.31,120.56-95.23,112.44-85.75,214.8-192.58,335.36-260.4,61.42-34.44,121.21-77.66,192.38-75.2,26.65,1,43.87-23.55,50-54.47,6.5-32.68.33-62.9-23.72-82.94-28.27-23.54-59.47-22.84-90.66-13.35-54.6,16.87-106.59,43.22-156.63,74.5-95.87,59.74-182,140.56-272.32,212.25Q2488.25,2783.51,2357,2887.53c-13,10.19-26,19.68-40.95,1.76-64-77.67-130.63-151.81-190.43-235.1-69.21-97-133.23-200.65-212.85-285.7C1813,2261.67,1715.17,2152,1625.15,2031.14c-17.54-23.55-40.29-41.12-58.81-63.61-80.92-97-164.43-190.81-234-301.86-57.51-92.07-111.13-188-179.7-268.83-63.37-74.5-122.51-154.62-178.08-238.26C894,1037,817,910.84,722.74,805.76,627.2,699.29,554.08,568.21,468.62,450.84c-51.35-70.64-99.76-144.43-157.28-207C222,146.87,136.18,45.66,58.52-66.79c-10.73-15.47-15-30.93-8.13-52,8.78-27.76,5.2-55.53-15.59-73.1-21.13-17.92-17.88-39-11-64.31C53.32-365.14,65-479.35,78-592.51q23.88-206.62,58.16-410.8C162.83-1162.15,194-1319.58,228.8-1476c48.09-216.47,95.54-433.29,146.56-649.06,38-160.24,75.71-320.83,109.18-482.84C528.74-2822.92,583-3035.17,595.35-3259c5.2-94.53,1.63-189.77-23.39-279.38-43.55-156.37-144.29-228.41-263.87-263.91C214.5-3830.07,119-3813.2,24.4-3808.63a482.19,482.19,0,0,0-105.94,16.87c-65,17.92-129.66,38.65-194,61.14-208.63,72.39-393.85,192.22-541.39,398.85-86.11,120.19-157.28,253.37-226.49,388-92,178.17-175.16,362.66-252.17,551.72-53.62,131.78-105.94,263.91-151.11,401-20.15,61.5-40.94,122.29-61.42,183.44-3.25-.35-6.82-.35-10.07-.7-6.17-54.82-13.65-109.64-18.52-164.46-15-164.11-37-327.17-57.52-490.22-16.25-126.51-35.75-252.67-52.64-379.18-24.38-183.08-56.87-364.06-90.67-544.69-24-128.61-49.72-256.88-84.81-381.63-41.6-147.95-82.87-296.24-164.76-418.18-46.14-68.88-104.64-112.1-177.43-106.48-72.46,5.62-138.43,42.52-195.95,98-102.36,98.75-179.7,224.21-245.34,364.77-109.84,235.45-167.68,491.63-202.13,758-26.32,203.11-27.95,409-31.85,613.91-4.87,239.67,2.93,479.33,16.58,718.64,12.35,218.23,32.49,434.7,77.34,646.95,35.42,166.22,85.46,320.14,182.3,444.54,15.27,19.68,17.22,29.87-7.47,42.17C-2686.42-548.93-2795-474.08-2895-381-3138.12-154.65-3378.27,75.88-3608,324c-142.66,153.92-282.72,311.7-430.58,457.54q-214.47,210.84-426.34,425.56c-120.89,123.34-242.42,246-351.29,386.9-144.93,187.65-276.54,390.07-406.2,594.94-125.43,198.2-252.49,394.64-386.38,584-109.83,155.67-218.69,312.76-320.41,477.57-10.07,16.16-23.07,23.89-39,26.35-160.53,23.9-319.11,62.56-477.37,104-123.16,32.33-245,72-365.58,117.37-131.28,49.2-259.64,105.43-378.58,192.58-29.57,21.79-40.94,56.22-28,88.2,15.28,36.55,46.8,49.2,77,27.41,60.77-44.28,124.78-78.71,190.75-109.29,119.59-55.52,242.75-95.23,366.23-131.07,124.79-36.2,250.87-64.66,376.63-95.59,45.5-11.24,91.32-19.68,137.14-28.46,5.84-1.06,14.94-.35,17.87,4.21,5.85,8.44-.33,17.22-4.88,25.31-32.49,56.22-60.11,116.31-86.44,177.11-58.16,134.94-111.13,273-151.75,418.18-36.07,128.62-66.29,259.69-84.49,394.28-4.23,31.28-16.9,43.93-40.95,52.36-184.58,64-368.5,129.32-551.13,202.06-196.28,78-388.65,167.63-570,292.38-51.67,35.84-105,70.63-148.18,123-22.1,26.71-20.48,59.74,0,87.51,18.19,24.59,44.19,27.05,66.94,7,19.5-17.22,38.67-35.14,58.82-50.25,128-95.58,262.89-171.84,403.27-234,146.23-64.66,295.07-119.13,443.57-173.25,91-33,183.28-61.14,274.6-92.77,34.77-11.95,38-11.6,35.42,34.44-7.8,129.67-17.55,259.69-12,389.72,3.9,91.36,13.65,182.38,35.75,269.88,20.8,82.93,23.4,84.34-40.95,113.51-163.13,73.44-325.61,149.35-484.51,237.2-74.74,41.12-150.46,79.77-215.78,144.08-43.22,42.52-65,119.83-50,178.87,10.07,39,38,66.41,64,62.2,28.27-4.57,54.59-43.58,53.29-84.69-.65-22.14,6.17-34.79,18.85-47.8,46.14-46,99.11-76.6,151.75-106.82,179.38-102.27,364.29-185.55,553.09-255.13,20.79-7.73,31.84-2.46,43.22,19.33,21.12,41.11,41.59,83.28,66.94,120.53,144.61,213.31,328.53,344.74,541.38,414,157.93,51.3,319.77,61.49,481.27,65,302.86,6.67,605.73,6,908.59,15.11,191.73,6,379.55,51.3,569.33,73.09,117,13.36,234,30.93,351.61,37.95,80.91,4.92,162.15,7.74,242.42,19.33,142.33,20.38,283,54.47,424.72,81.53,115,21.79,230.08,44.28,345.44,61.85,144.6,22.14,288.89,43.57,433.82,61.14,153.71,18.63,307.41,30.93,461.44,46,101.07,9.84,202.45,17.22,303.52,27.76,139.73,14.76,279.79,29.52,419.85,39,69.21,4.57,138.43,4.57,207.32,10.54,115.36,10.19,231,9.14,346.73,10.54,80.59,1.06,161.83-4.57,242.75-11.24,132.58-10.54,263.87-33.39,395.15-56.58,109.84-19.33,219.35-42.87,328.54-66.77,123.16-26.71,246-55.17,367.85-87.85a4096.2,4096.2,0,0,0,405.55-133.19q293.94-113.85,564.14-296.94c218-147.59,423.09-320.14,609.3-528.17,118.61-132.84,228.77-273.75,301.89-454,20.47-50.6,42.89-101.55,53-157.78,6.83-38.3,10.4-78,13-117.37,2.28-35.5,16.58-43.58,41-37.25,27.29,7,54.92,13.35,82.21,20.73,94.57,25.65,189.13,53.06,284,77,110.81,27.76,221.95,53.77,334.06,72.39,102.69,17.22,205.7,30.93,308.71,42.87,32.5,3.87,61.09-24.6,64.34-58.68C4212.82,4885,4192.67,4851.57,4158.87,4843.84ZM-414.95,4055.62c-20.8,0-20.8-35.14,0-35.14S-394.15,4055.62-414.95,4055.62Z" transform="translate(7705.81 4293.72)"/><path class="cls-2" d="M2920.45,4726.47c-71.17-3.87-142.33-13-213.5-15.46-215.45-7.38-430.25,1.75-643.75,40.06-175.8,31.27-350,70.28-506.94,185.89-12.35,9.14-25.34,14.06-40.29,6.33-20.15-10.89-34.77-26.36-37-56.58-2.27-33,9.1-54.82,30.87-70.63,99.77-73.45,207.33-122.29,319.12-155.33,144.28-42.87,290.84-66.06,438-84.33,216.75-27.06,433.18-39,650.57-19.68,28.28,2.46,25.68-11.95,20.48-34.79-21.13-96.29-48.75-190.12-78.32-282.19-16.57-50.95-31.2-106.83-66.29-143.73-27.62-29.51-52.64-60.79-72.14-99.09-38.35-74.5-68.24-155.68-111.79-226.31-13.32-21.79-23.4-23.9-43.22-13.71-180,92.78-362.65,176.76-546.58,255.48-137.78,59-280.12,103.67-410.43,190.11-27.94,18.63-54.92,8.79-70.51-22.84-15-30.92-10.08-60.79,9.42-86.09,40-52,87.41-90,141.68-112.46,154.68-65,310.34-126.86,464.37-193.62,107.24-46.39,212.85-98.75,319.11-149,10.73-4.92,32.82-10.55,17.88-31.28-37-51.3-58.82-118.78-105.62-159.89-39.32-34.44-72.79-77.31-103-124.4-19.17-29.87-40.62-56.93-58.82-87.5-18.85-32-36.07-31.63-62.39-11.95-69.54,52.71-140.71,102.26-212.2,150.76-105.94,71.33-212.52,140.56-318.79,211.2-15.92,10.54-39.64,17.57-43.54,39.7-11.7,65.37-51,70.29-91.31,77.32-40.62,7.38-77.67-13.71-90.34-52.36-13.33-40.42.32-82.94,39-114.21,29.25-23.55,59.47-45,89.69-66.07,178.4-123,363-230.88,539.76-357.74,23.07-16.51,27.62-26.7,6.17-52-61.09-71.68-120.23-146.18-174.5-226.31-56.22-83.28-115-163.75-179.7-236.85-38.67-43.57-78-86.8-115.69-132.13-156.3-188-286.94-405.88-435.12-603.37-20.15-26.71-39.32-54.47-62.39-77.67-110.81-112.45-218-229.82-312.62-364.41-95.53-136-184.9-279-285.31-410.1C456,932.62,402,850,346.76,769.22Q219.53,582.62,93.62,394.61C9.13,268.1-89,156.35-162.78,18.25c-6.82-12.65-15.6-16.52-26.65-20-38.67-12.65-71.81-38.3-97.48-77.31-23.4-35.49-28.27-76.26-13-119.13,14.62-41.12,40.62-68.17,76-63.25,34.44,4.56,44.52-16.17,53.62-51.31,27.29-106.13,39.64-215.77,51.67-325.41,28.92-263.21,72.79-522.9,126.41-779.43,48.74-232.64,102-463.87,157-694.39C235-2406.85,310-2699.57,372.11-2997.57c27.62-132.83,51.66-266,47.77-404.48-2.6-101.2-38.35-156-116-179.57-37-11.24-75.06-14.41-112.76-13.35-129,3.16-255.74,24.95-379.55,73.09-105.61,41.12-210.25,84-305.46,156.73-144.61,110.35-247.3,272-340.24,445.24-186.52,347.9-341.21,718.29-464.37,1108.36-75.39,238.6-146.88,480-153.38,742.53-1.62,63.25-44.52,107.88-91,105.07-47.77-3.16-81.56-48.84-82.54-114.91-1.3-71.34-6.82-142-11.37-213q-24.85-380.58-65.32-759.06c-27.29-254.77-58.17-509.19-94.24-762.21-37.37-263.91-81.24-526.41-140.38-784.35-32.82-142.32-73.12-280.78-135.18-407.64-38.35-78.36-63-86.45-128.69-49.2-74.09,42.17-124.46,116.67-172.55,194.69-170.93,278-247,601.61-279.14,945.29-18.85,200.31-19.5,402-20.15,603.73-.32,172.9,3.57,345.44,13,517.63,7.8,139.51,16.57,278.67,33.79,416.42,19.5,157.09,39,314.87,91.32,460.35,42.24,117,90.66,231.94,211.87,239.32,24.7,1.4,49.72,2.81,74.42,1.75,33.47-1,66.94-6.67,100.41-6,36.07.7,59.47,32.68,60.12,74.85.65,44.28-23.72,76.26-60.12,79.77-65.64,6.33-131.61,15.11-197.25,0-36.39-8.43-59.14,28.11-89.36,40.06q-156,61.68-286.29,187.66c-64.35,62.2-127.06,127.91-196,182.73-257.36,204.17-496.86,437.51-721.41,696.5-193.67,223.15-401.32,424.86-607,629.73-148.84,148-299,294.13-435.13,461.41-147.85,181.68-277.84,383.39-406.85,586.15-102,159.89-202.45,321.19-308.71,476.16-107.56,157.44-216.1,313.82-324.31,470.9-5.53,7.73-15.27,15.81-10.4,27.41,4.87,10.89,15.92,4.92,24.05,4.21,60.11-7.73,120.23-17.21,180.35-23.89q161.34-18.45,323-34.44,215-20.57,429.92-39c104.64-9.13,208.95-20,312.62-38.3,39.32-7,79-17.57,119.26-12,32.82,4.57,55.89,29.52,59.46,64,3.58,33.73-14,67.82-44.84,81.17-19.17,8.44-39.64,14.06-59.79,17.93-135.84,26-272.64,39-409.45,48.84-172.56,12.3-345.11,25.66-517.34,41.82-167,15.81-333.41,39-499.79,60.09-18.52,2.46-36.72,5.63-50.69,29.17-174.51,295.89-297.67,621.65-362.66,982.55-5.52,29.87-.65,37.6,23.4,28.81,56.87-21.08,114.06-40.76,171.58-59.74,119.91-39.71,239.82-81.17,360.7-117.37,124.79-37.95,250.55-71.33,376-105.42C-5147,4120.64-4998.84,4082-4851,4043c48.42-13,96.84-26.71,145.59-37.6,38.34-8.44,69.21,14,81.89,54.46,10.72,34.79.65,68.53-30.23,99.1s-67.26,49.2-102.68,69.93c-14.3,8.44-31.85,6.68-42.57-8.08-17.23-23.54-35.75-18.27-56.55-12.3-82.21,22.49-164.75,43.22-247,65.71-143.3,39-286.94,78-429.92,119.13-113.74,32.68-226.82,68.18-339.91,103.67-116.33,36.9-232,75.91-348,112.8-24.37,7.73-35.42,21.44-36.72,55.53-2.6,71-10.72,141.62-14.62,212.6-9.1,166.57-5.2,331.38,38.34,491.63,7.8,29.16,16.9,35.49,39.65,25.65,129-54.47,259.64-102.26,390.27-149.7q200.83-72.75,404.58-130.38c190.75-53.76,381.5-107.18,570.63-168.67,177.75-58,354.53-119.84,532-179.93,41.27-14.05,70.84,2.81,81.89,45,11.7,44.63-5.2,78.72-48.42,98.05-36.72,16.51-73.11,33-109.83,49.2-175.16,78-350.64,154.26-530.34,214q-205.22,68.52-412.05,125.8c-108.54,30.22-216.42,63.26-324.64,94.88-165.08,48.15-330.16,95.94-493.61,153.22-21.12,7.38-27,15.46-12,41.47,116.34,201,272,328.21,458.85,400.25,162.15,62.55,329.18,74.5,496.54,79.07,307.09,8.43,614.18,2.81,921.59,15.11,193,7.73,382.15,52,573.23,74.5,114.06,13.36,227.8,30.57,342.18,37.25,88.39,4.92,177.43,6.33,265.5,18.63,166.38,23.19,331.78,52.71,497.84,80.47,211.87,35.84,423.42,72.39,636.27,99.45,157.93,20,316.19,34.79,474.77,48.14,135.83,11.6,271.66,19.68,407.5,34.44,226.17,24.6,452.67,39,679.49,45.33,210.9,6,421.47,2.81,631.4-29.87,145.58-22.84,290.84-49.19,435.45-80.12C804,6383,932,6351.4,1060.37,6319.78c165.41-40.77,329.19-90.32,489.4-155.68,201.15-81.88,393.85-188.71,576.8-322.6,235.27-172.19,454.62-370.39,642.77-620.59,93.92-124.75,160.53-267.43,182.31-440.32C2956.19,4744,2950.34,4727.87,2920.45,4726.47Zm-3335.4-670.85c-20.8,0-20.8-35.14,0-35.14S-394.15,4055.62-414.95,4055.62Z" transform="translate(7705.81 4293.72)"/><ellipse class="cls-3" cx="3001.06" cy="10514.04" rx="485.49" ry="2.46"/></svg>