<svg id="圖層_1" data-name="圖層 1" xmlns="http://www.w3.org/2000/svg" viewBox="0 0 2022.95 746"><title>點擊放大</title><path d="M1539.32,1365.94c18.5-18.78,41.53-28.92,65.6-37.15,3.21-1.09,3.62-2.78,3.11-5.51-3.09-16.35-5.4-32.8-5.84-49.45-.09-3.39-1.4-3.27-4-2.51a361.82,361.82,0,0,1-42.62,9.93,88.85,88.85,0,0,1-21.92.36c-3.64-.33-6.25-2.46-6.41-6.44s2.13-6.22,5.86-6.88c21.92-3.91,41.92-13.55,62.66-21,2.44-.88,4.37-1.52,3.8-5.07-.39-2.4,1.36-4.64,4-5.69s5.23-.56,6.77,1.54c1.78,2.4,3.24,1.83,5.4.86,10-4.51,19.28-10.45,29-15.51,9.09-4.74,18.51-.11,20.06,9.64.86,5.44-2.19,10.86-8.31,14-10.9,5.66-21.85,11.26-33.33,15.68-3.51,1.36-4.2,2.83-3.26,6.62,4,16.25,7.66,32.61,11.2,49,.64,2.95,1.7,3.28,4.38,2.85,35.83-5.72,69,20.12,72.85,56.3,1.16,11,1.5,21.9-1.12,32.72a29.74,29.74,0,0,1-2.08,6.63c-8.28,16.08-16.09,32.57-35.1,39.1-3.59,1.23-6.83,3.42-10.26,5.11-8.43,4.14-8.45,4.12-7.22,13.49.17,1.3.51,2.58.9,4.47l13.91-8.24c7.45-4.4,14.81-9,22.84-12.24a7.53,7.53,0,0,0,4-4.06c2.27-4.5,6.44-6.44,10.86-4.71,7.16,2.78,13.23,7.6,15,15.51s-2.3,13.82-8.7,18.18c-5.67,3.86-12.25,5.9-18.35,8.92-11.49,5.68-22.61,12-33.62,18.53-2.4,1.42-3.46,2.83-3.26,5.87,1.06,16.44,3.37,32.79,3.27,49.31a88.2,88.2,0,0,1-5.79,31.09c7.19-4.44,12.88-8.74,19.2-11.65,6.82-3.15,9.32-7.3,8-14.81-1-5.52,0-11.3,1.55-16.79a16.39,16.39,0,0,1,4.47-7.67c5.25-4.88,12.85-3,14.42,3.93,1.74,7.76,2.56,15.72,3.92,23.57,2.17,12.59,4.69,25.13,6.56,37.77.8,5.34,2.19,10.8.74,16.3-1.79,6.84-7.48,11.16-14.24,10.82a13.68,13.68,0,0,1-13-12.21c-.91-7.22-1.52-14.48-2.36-22.65-7.6,6.56-15.8,11.18-23.68,16.27-8.38,5.41-16.5,11.26-25.47,15.71-7.75,3.83-15.77,6.16-24.53,4-8.29-2.08-13.62-8-14-16.63-.56-14.55,1.6-28.84,5.29-42.88a19.27,19.27,0,0,1,6.17-10.08c1.76-1.47,3.78-2.06,6-.6,2,1.34,3.54,3.42,2.49,5.46-3.62,7-.4,14.12-.5,21.15-.1,6.29,1.06,12.6,1.31,18.91.15,3.9,1.76,4,4.69,2.73,8.48-3.62,15.69-9.23,24-14.52-4-1.69-4.62-4.48-4.5-7.85a39.08,39.08,0,0,0-2.27-13.21c-5-15.51-6.1-31.59-7.63-47.62-.2-2.15-.12-4.34-1.32-6.62-13,6.22-26,12.44-39.55,17.42-12.14,4.46-24.24,9.16-37.48,9.3a18.72,18.72,0,0,1-7.75-1.57c-3.34-1.45-5.7-3.9-4.77-7.77.88-3.66,2.6-7.05,7.37-6.45,1.52.19,2.54-.6,3.69-1.21,23.91-12.74,47.73-25.66,71.19-39.23,3.81-2.21,6.3-4.29,4.94-9.31-.8-3-.36-6.29-.37-9.46,0-2.62-.76-3.62-3.6-2.6-20.64,7.43-41.87,12.76-63.22,17.63-2.45.56-3.37,1.67-2.69,4.19a15.53,15.53,0,0,1,.25,8.39,11.37,11.37,0,0,1-10.62,8.36,12,12,0,0,1-11.86-8.22c-3-8-4-16.44-5.11-24.82-2.86-21.93-5.37-43.92-6.65-66a286.7,286.7,0,0,1,2.76-61.26,27.63,27.63,0,0,1,8.63-16c2.4-2.26,5.06-2.85,7.56-.65s2.19,5-.07,7.45C1536,1352.21,1539,1359.14,1539.32,1365.94Zm6.21,66.6a151.77,151.77,0,0,1,16.36-10.9c17.21-9.78,35.61-17.18,53-26.52,2.59-1.39,3.69-2.86,3.25-5.76-1.85-12.32-3.6-24.65-5.38-37-.34-2.37-1.34-3.4-4-2.6-23,7-45,16.23-64.53,30.56a9.22,9.22,0,0,0-4.16,8.91A388.06,388.06,0,0,0,1545.53,1432.54Zm77.84,8.26c-.5-6.15-.95-11.12-1.27-16.09-.17-2.63-.91-3.59-3.71-2.39-5.33,2.28-10.78,4.3-16.21,6.34q-24.42,9.19-48.86,18.32c-3.45,1.29-5.71,2.57-4.48,7.46,1.68,6.7,2.84,13.61,3.94,20.44.9,5.62,2.42,5,6.43,3.13q29.51-13.83,58.49-28.72C1621.9,1447.14,1625.44,1445.18,1623.37,1440.8Zm59-74.47c-6.83-14.55-18.76-21.75-36.43-22.4-9.2-.33-9.24-.32-7.66,8.53,1.65,9.23,3.38,18.45,5.13,28C1656.25,1374.74,1668.73,1369.4,1682.32,1366.33Zm-33,66a17.65,17.65,0,0,0,2.21-.66c9.61-4.39,18.36-10.77,29.07-12.66,1.49-.26,2-1.49,2.66-2.71a42.29,42.29,0,0,0,4-17.31c.07-1.6-.26-2.93-2.14-1.94-11.22,5.89-24.23,6.52-35.55,12.17-2.07,1-2.58,2.21-2.35,4.22C1648,1419.63,1648.63,1425.86,1649.35,1432.3Z" transform="translate(-932.19 -1221.57)"/><path d="M957.57,1431.88a379.7,379.7,0,0,1,33.31-22.38c20.09-11.8,40.48-23,63.13-29.18a125.81,125.81,0,0,1,46-4.29c19.62,1.94,33.24,13.79,45.21,28.36,25.75,31.36,27.67,66.16,14.72,102.84-4.51,12.75-13.94,22.57-23.17,32.22-2,2.14-3.48,3.72-2,7.18,1.74,4.15-.11,8-3.17,11.35-6.73,7.27-15.46,11.43-24.19,15.54-5.4,2.54-10.95,4.79-16.52,7-2,.79-3,1.72-2.66,4,1.76,12.16,3.44,24.34,5.13,36.51.3,2.19,1.48,1.72,2.82,1,8.17-4.11,16.35-8.2,24.5-12.36a5.65,5.65,0,0,0,1.71-1.7c4.57-6,8.44-7.65,13.94-6a16.12,16.12,0,0,1,11,14c.55,9.35-4.74,14.94-12.36,18.71q-16.52,8.17-33.35,15.7c-3,1.35-3.85,3-3.43,6,1.44,10.71,2.84,21.42,4,32.16.69,6.44,1,12.94,1.26,19.42a117.36,117.36,0,0,1-1,19.79,307.24,307.24,0,0,1,40-11.59,202.94,202.94,0,0,1,28.57-4.22c7.84-.51,15.35,1,19,9s1.38,15.3-4.17,21.72a33.85,33.85,0,0,1-18.15,10.88c-36.38,8.46-71.5,21.33-107.66,30.54-10.77,2.74-21.51,5.6-32.78,5.75a32.71,32.71,0,0,1-18.74-5.75c-3.94-2.55-4.41-5.22-2-9.2,4.32-7.28,10.6-12.3,18-16,15-7.52,30.7-13.47,46.48-19.13,4.09-1.46,5.52-3.33,5.37-7.78-.66-19-3.26-37.77-5.73-56.56-.43-3.27.06-6.73-1.84-10.08-8.7,2.91-17.51,6-26.42,8.8-8.41,2.64-16.93,4.81-25.87,4.66a11.71,11.71,0,0,1-7-2.09c-3.91-2.91-4.16-6.69-.81-10.21,1.65-1.74,3.78-2.61,5.87-3.64,15.51-7.61,30.91-15.44,46.54-22.8,3.81-1.8,4.65-4,4.12-7.7q-2.64-18.49-5-37c-.41-3.25-2-2.71-4.11-1.91q-20.07,7.44-40.17,14.78a60.37,60.37,0,0,1-13.9,3.78c-3.25.37-5.89-.55-7.67-3.48-1.67-2.75-1.34-5.36.31-8,.83-1.32,2.22-2.32.69-4.32-13.3-17.42-20.92-37.67-28.38-57.94-8.21-22.29-14.25-45.22-19.78-68.29-.31-1.29-.67-2.57-.95-3.87-.21-.94-.05-2.19-1.41-2.24a2.45,2.45,0,0,0-2.18,1.84c-1.19,3.42-2.35,7.31-7.05,5.54-5.09-1.92-3.12-6.29-2.29-9.89a28.76,28.76,0,0,1,7.05-13,6,6,0,0,0,1.5-5.89,56.5,56.5,0,0,1-.63-16.92c.64-6.7,5.36-10.34,11.09-8.88,4.79,1.22,6.45,3.78,4.55,8.4C955.8,1427.48,957.31,1429.09,957.57,1431.88Zm113,57.32c.79-2.12,1.23-3.18,1.58-4.27,4.74-14.77,7.34-30,8.89-45.36.53-5.23,3.83-8.57,8.43-8.86,4.8-.29,8.77,3,9.68,8.19a109.94,109.94,0,0,1,1.58,22.35c-.74,22.09-7.78,42.37-18.12,61.55-2.82,5.21-3.72,10-2.3,15.54a77.71,77.71,0,0,1,1.86,10.28c.37,3.1,1.5,3.42,4.26,2.27,8.12-3.37,16.35-6.46,24.54-9.68a7.17,7.17,0,0,0,3.3-2.07c16.94-21.09,30.32-43.46,30.72-71.87.34-24-6.35-44.5-24.51-60.74a33.31,33.31,0,0,0-20.15-8.82,111.87,111.87,0,0,0-48,6.65c-30.5,11.36-58.22,28.24-86.33,44.33-2.53,1.45-2.36,3.12-1.68,5.32a1292,1292,0,0,0,47.31,127.26c.94,2.19,1.72,2.79,3.93,1.4,11.57-7.27,24.1-12.63,36.61-18,3.92-1.68,4.22-6.1.67-8.84-4.76-3.7-5.3-6-3-11.57.93-2.24,2.3-4.31,1.84-7.07q-5.74-34.62-11.27-69.29c-1.46-9.19-2.84-18.44.38-27.61,1.89-5.38,4.82-6.15,9.3-2.66,7.38,5.77,10.62,13.9,13,22.47C1065.66,1469.35,1067.91,1478.69,1070.6,1489.2Z" transform="translate(-932.19 -1221.57)"/><path d="M2705.19,1536.58c21.55-7.58,42.47-15,63.48-22.27,6.24-2.15,12.5-4.49,19.26-4.69,7.78-.23,13.71,3,16.87,10.08s2.11,14-3,20c-4.3,5.07-10,8.27-15.93,10.94-19.41,8.71-39.66,15.15-59.76,22-7.53,2.57-15.17,4.83-22.83,7-2.79.79-4,2-4.21,5.09-.6,8-1.61,15.88-2.67,23.78-.39,2.93.17,4.85,2.76,6.7,13.48,9.68,24.06,22.51,36.16,33.7,31,28.67,66.28,51.18,103,71.75,30.47,17.08,61.7,32.61,93,48a105.86,105.86,0,0,1,10.93,6c11.41,7.38,15.52,18.17,11.25,28.93s-16.72,17.07-29.26,14.63c-15.79-3.07-30.31-9.7-44.77-16.39-51.06-23.61-96.59-55.48-137.62-93.75-17.48-16.29-31.61-35.57-44.81-55.47-1.13-1.71-1.78-3.92-4.36-5.05-1.46,10-2.92,19.76-4.29,29.53-5.08,36.23-13.41,71.72-23.9,106.74-4.61,15.41-8.68,31-15.34,45.73-2.55,5.62-5.42,11.08-10.31,15.12-6.2,5.12-14.42,4.59-18.6-1.13-2.82-3.87-2.52-8.21-1.65-12.47,3.31-16.08,7-32.07,10.13-48.18,8.32-43.51,18.34-86.69,24.68-130.59,2.73-18.87,6.94-37.52,10.52-56.26,1.09-5.67,1.16-5.68-4.38-4.33-18.86,4.58-37.65,9.52-56.84,12.53-9.39,1.48-18.83,2.41-27.91-1.94-5.66-2.71-6.09-6.11-1-9.87a55.79,55.79,0,0,1,14-7.58c27.39-10.2,54.28-21.59,81.24-32.84,3.72-1.55,5.31-3.71,6.2-7.35,4.82-19.82,9.74-39.61,16-59a51.81,51.81,0,0,1,6-13.11c1.63-2.45,3.76-4.55,7-3.66s2.88,3.57,3.48,6.29c4.21,19.07-.26,37.73-2.1,56.51C2705.4,1533.15,2705.33,1534.63,2705.19,1536.58Z" transform="translate(-932.19 -1221.57)"/><path d="M2393,1776c-.93,8.75-1.89,17.47-2.77,26.2-1.45,14.56-3,29.11-4.23,43.69-1.11,12.94-1.81,25.91-2.86,38.85-.62,7.62-1.83,15.19-5,22.25-2.65,6-6.79,10.32-13.73,10.82-10.05.72-15.89-5.85-16.3-18.15-.58-17.34.25-34.66,1.21-52,.86-15.45,2.28-30.87,3.49-46.3,1.42-18.08,2.81-36.17,4.37-54.24.28-3.16-.76-5.27-2.94-7.43-17.75-17.62-33.66-36.94-50.52-55.39-4.13-4.52-4.53-8.14-1.76-12.09s7.36-5.08,12.47-2.32c14.2,7.65,27.88,16.21,41.56,24.76,4.84,3,4.79,3,5.18-2.61,2.64-38.17,5.93-76.27,11.72-114.12.73-4.76,1.1-9.58,1.91-14.32.62-3.59-.1-4.32-3.8-3.27-13.56,3.87-27.26,3.74-40.93.47-20.25-4.85-29.16-18.25-25.71-38.75a121.28,121.28,0,0,1,4.77-20.33,22.83,22.83,0,0,1,6.33-10c2.27-2,4.8-2.33,7.33-.7s3.65,4.11,2.47,6.91c-4.5,10.68-1.35,21.28.17,31.89.44,3.05,2.5,4.66,5.84,5.14,10.51,1.5,20.55-.41,30.35-3.86a301.84,301.84,0,0,0,36.19-15.35c7.93-4,17-1.24,21,6.25s1.31,16.57-6.52,21c-3.91,2.19-8,4.07-12,6-1.69.83-2.92,1.47-2.58,4,2.16,16.23,1.68,32.58,1.68,48.9,0,38.49-.44,77-2.38,115.44-.21,4.11,1.1,6.45,4.39,9,37.15,28.45,76.17,54.38,112.32,84.14a154,154,0,0,1,13.36,12c6.65,6.94,7.77,14.47,3.92,21.89-3.61,6.94-11.43,10.55-20.32,9.8-15.39-1.29-28-8.8-40.12-17.51-25.43-18.27-50.91-36.47-73.54-58.29C2396.1,1777.43,2395.13,1776.18,2393,1776Z" transform="translate(-932.19 -1221.57)"/><path d="M2130.22,1531.94c-12.67,3.09-24.69,5.61-37.14,4.9a17.82,17.82,0,0,1-9.78-3.2c-2.63-1.91-4.1-4.31-3.34-7.7.94-4.22,4.71-5.68,7.89-5.87,12.69-.77,24.05-6,35.83-9.8,25.28-8.09,50.76-15.49,76.22-23,3.26-1,6.6-1.37,9.81-.13,7.53,2.91,8.91,13,2.58,18.47-5,4.38-11.37,6.1-17.52,8.1-17.35,5.64-35,10.37-52.62,15.2,8.35,18,8.58,37.37,11,56.31,2.47,19.47,4.23,39,5.47,58.63q1.35,21.18,2.59,42.37c.23,3.93,0,7.89,1.05,12.09,6-4.68,11.45-9.29,17.26-13.4,14.41-10.22,29.95-17.85,47.88-19.52,11.78-1.09,21.2,3.13,28.09,12.73,8.84,12.31,12.48,26.69,15.63,41.13,5,23.18,6.36,46.82,6.9,70.42.47,20.46,1.29,41-.79,61.43a47.47,47.47,0,0,1-4,15.86c-4.72,9.88-15.73,13.38-24.72,8-5.08-3-6.93-9.22-3.28-13.65,2.67-3.24,3.36-6.77,3.75-10.46,2.13-19.94,1.62-39.95.79-59.92-.66-15.78-1.6-31.57-3.55-47.28a208.63,208.63,0,0,0-10.64-45.45c-2.88-8-4.69-8.49-13.29-7.09-11.53,1.87-21.73,7.11-32,12.27-8.31,4.19-16.36,8.89-24.65,13.11-2.22,1.13-2.7,2.45-2.57,4.68.85,14.29,1.57,28.6,2.39,42.89,1.2,20.78,2.56,41.55,3.62,62.33.37,7.28,1.89,14.52.3,21.9-1.52,7-5.53,11.63-11.77,12.41s-11.84-2.37-14.84-8.67c-2.91-6.09-3.65-12.74-4.6-19.29-3.4-23.38-6.15-46.83-7.79-70.39-1.23-17.61-2.57-35.22-3.14-52.86-1.23-38-2-76-3-113.93-.28-10.68.36-21.33,1.12-32A243.88,243.88,0,0,1,2130.22,1531.94Z" transform="translate(-932.19 -1221.57)"/><path d="M1782.59,1896.28c.05-19.61-3.39-38.25-6.93-56.87-1.48-7.82-3.09-15.62-4.64-23.43-.55-2.77-1-4.52-5-3.62-14.91,3.31-29.93,6.25-45.28,6.78-8,.28-16-.1-23.59-3-9.92-3.81-11.7-12.74-4-19.38,2.83-2.45,6-3.09,9.2-1.27a7.54,7.54,0,0,0,6.14.68q25.58-6.45,51.2-12.66c3.28-.8,4.57-1.88,3.69-5.62a207,207,0,0,1-3.9-21.55c-.41-3.24-1.62-3.15-4.13-2.68-15,2.76-30,5.91-45.17,7.55a97.91,97.91,0,0,1-12,.51c-4.35-.07-7.28-2.26-8-6.67s1-8.06,5.53-9.33c18.86-5.32,36.79-13.39,55.63-18.72,3.5-1,4.34-2.32,4-5.81-.72-8.84-.17-17.58,3.4-25.94,1.43-3.35,3.49-5.22,7.17-4.81s5.24,2.89,5.61,6.47c.73,6.94,1.2,13.91,3.17,20.67.64,2.19,1.14,3.38,4,2.66,9-2.31,18.29-3.28,27.53-4.35a14.2,14.2,0,0,1,15.88,11.86c1.1,6.79-4.22,13.64-11.65,15l-24,4.32c-2.88.52-4.58,1.16-3.47,5a201.61,201.61,0,0,1,4.21,20.46c.45,2.52,1.44,3,3.67,2.18,9.34-3.28,19.16-5.17,27.85-10.35,6.63-4,16-1.71,20.14,4.33,4.28,6.2,3.09,14.94-2.92,20.34-5.31,4.78-11.92,7.23-18.5,9.54s-13.26,4.24-20,6.12c-2.6.73-3.26,1.6-2.66,4.51,4.48,21.77,9.46,43.48,12,65.6,1.84,16.36,4.1,32.69,4.44,49.18a69.51,69.51,0,0,1-2.19,17.78c-3.56,14.71-14.21,23.22-29.3,25.11-14.29,1.78-27.56.43-39.16-8.88-7.75-6.22-11.82-14.76-14.2-24.06a12.32,12.32,0,0,1,4.71-13.37,13.12,13.12,0,0,1,14.53-1.47c4,1.92,8.17,3.72,12.13,5.82,5.39,2.86,11.14,2.87,17,2.79,2.59,0,3.37-1.67,4.22-3.5,3.18-6.85,3.3-14.17,3.36-21.51C1782.29,1900.39,1782.5,1898.06,1782.59,1896.28Z" transform="translate(-932.19 -1221.57)"/><path d="M1400,1787.48c6.06-1,11.39-2.89,17-3.14,11.28-.52,19.61,5,22.42,15,2.59,9.2-2,19.15-11.42,24.15-7.12,3.79-15.06,5.08-22.83,6.69-23.76,4.92-46.5,13.39-69.8,19.9-9.13,2.55-18.19,4-27.35.53-1.73-.66-2.19.15-3,1.36-3,4.27-7,6.59-12.41,5.19-5.56-1.45-8.74-5.2-9.25-11.6-.88-11.11-1.39-22.25-2.15-33.37-1.52-22.08-3.31-44.13-4.6-66.22-.92-15.61-1.72-31.28.64-46.86a19.94,19.94,0,0,1,3.15-8.84c2-2.81,4.79-4,8.27-2.71s5.5,4.07,4.44,7.39c-2.82,8.86-.56,17.45.33,26.17,2,.6,2.54-1.27,3.49-2.2,20.91-20.44,45.37-34.58,73.86-41.44,11.87-2.86,21.48,1.13,28.48,11.38,5.77,8.45,8.16,18.07,9.43,28,2.47,19.29,2.92,38.47-3.5,57.21C1403.67,1778.44,1401.86,1782.66,1400,1787.48Zm-94.46,38.23c16.58-9.64,33.54-16.88,50.66-23.55,7.33-2.85,11.36-7,14.22-14.1,10.08-25,13.43-50.57,7.66-77.06-1.85-8.53-4-9.94-12.45-7.87-20.19,4.94-38.65,13.92-56.13,25a21,21,0,0,0-7.65,7.75,4.78,4.78,0,0,1-2.43,2.37c-3.76,1-3.09,3.31-2.67,6.16,1.64,11.17,3,22.37,4.48,33.57C1303.26,1793.6,1304.32,1809.34,1305.53,1825.71Z" transform="translate(-932.19 -1221.57)"/><path d="M1822.18,1469.37c-6.19,3.15-11.58,6-17,8.65-6.84,3.4-13.75,6.66-20.6,10.06-3.94,2-8.18,2.56-12.45,3.24-3.3.53-6.25.27-7.59-3s.57-6.11,3-7.85c14-10.1,27.57-20.88,42.2-30.12a89.48,89.48,0,0,1,22.92-10.78c12.51-3.61,22.06,4.14,21.05,17.11-.84,10.81-3.77,21.24-5.68,31.85-2,11.1-4.3,22.14-6.59,33.19-.57,2.75.24,4.32,2.74,5.54,5.36,2.63,10.57,5.58,15.93,8.2a56.33,56.33,0,0,1,13,8.22c8.88,7.91,8.13,20.69-1.71,27.38-8.65,5.87-18.05,6-27.69,2.88a19.58,19.58,0,0,1-5-2.07c-6.75-4.61-12.65-7.33-19.11,1.32-3.09,4.13-9.28,4.22-14.35,1.57s-6.66-7.14-6.12-12.59c.4-4.13.85-8.16,3.3-11.82s2.71-7-.47-10.87c-5.28-6.4-9.73-13.44-16.78-18.31-3.64-2.51-4.33-6.64-2.93-10.79,1.63-4.81,5.63-6.89,10.26-7.6a27.73,27.73,0,0,1,17.37,3.18c2.11,1.11,3.45,1,4-1.5C1816,1492.93,1818.93,1481.58,1822.18,1469.37Z" transform="translate(-932.19 -1221.57)"/><path d="M1800.57,1333.21c0-9.16,0-18.32,0-27.49,0-1.65,1.12-4.48-2.77-3.19-14,4.67-28.38,8.32-41.08,16.26-1.69,1.06-3.29,2.26-4.94,3.39-4.12,2.81-6.24,6.17-5.71,11.68,1.28,13.08,3.91,25.94,5.69,38.94,1.7,12.38,3,24.76,2.52,37.3-.18,4.2-1.86,7.13-6.22,7.64-4.52.54-7.16-1.67-8-6.21-4.22-21.65-5.08-43.6-5.8-65.55a29.77,29.77,0,0,0-1.79-9.48c-2.18-6,1.12-11.69,4.21-16.72,7.83-12.77,19.25-21.38,32.89-27.28,10.51-4.55,20.72-9.81,31.8-12.92,13-3.66,21.2,1.65,23,14.9,2.3,17,2,34.23,2.81,51.35a123.85,123.85,0,0,0,1.34,13.9c.53,3.22,2.19,4.17,5.18,2.14a66.27,66.27,0,0,0,7.9-6.87c5.43-5.11,11.63-6,17.28-2.48s7.7,9.72,5.78,16.58c-6.34,22.61-35.73,33.21-52.25,18.69-8.22-7.22-11.5-17-12.08-27.59-.5-9-.1-18-.1-27Z" transform="translate(-932.19 -1221.57)"/><path d="M1316.42,1547.48c14.25-11,28.16-21.85,42.09-32.62,3-2.34,6-4.77,9.24-6.81,5.66-3.6,11.48-3,15.47,1.27s4.21,10.22.21,15.48c-3.68,4.84-7,10.11-14,11.21-2,.32-3.79,2.59-5.67,4-13.39,9.65-27.64,17.89-42.13,25.71-2.85,1.54-3.6,3.13-3.27,6.23q2.55,23.8,4.67,47.66c.67,7.71-4.08,13.56-11.26,14.55s-13.11-3.65-14.41-11.38c-2.27-13.45-3.06-27.08-4.19-40.66-1.67-20.06-3.17-40.13-4.77-60.2-1.74-21.72-3.62-43.43-5.19-65.16-.45-6.38,3.91-10.14,9.49-9,3.56.75,5.07,3.48,6.22,6.52,5.07,13.42,8,27.4,10.15,41.49,2.48,15.92,4.8,31.87,6.29,47.92A25.47,25.47,0,0,0,1316.42,1547.48Z" transform="translate(-932.19 -1221.57)"/><path d="M1213.07,1870a37.41,37.41,0,0,1-.83,11.39c-1.28,6.27-5.26,10.11-11,10.47-6.5.41-10.91-2.64-13-9.26-4.59-14.4-7.64-29.2-11.11-43.88a268.41,268.41,0,0,0-8.1-27.69c-.78-2.2-1.53-4-4.52-4.5-3.86-.64-6-3.91-6.1-7.59-.08-5.89,1.84-11.13,7.39-14.32,5.25-3,10.2-2.14,14.94,1.14a24.87,24.87,0,0,1,8.09,9.39c11.15,22.37,20.14,45.52,24.17,70.34A23.54,23.54,0,0,1,1213.07,1870Z" transform="translate(-932.19 -1221.57)"/><path d="M1791.07,1636.39a26.76,26.76,0,0,1,4.86.8c3.76,1.21,7.16,3.09,7.79,7.51.57,4-1.9,6.5-4.93,8.53-4.6,3.08-8.37,7.08-12.34,10.88q-24.54,23.48-49.11,46.92c-2.33,2.23-4.8,4.25-8.06,4.61a10.5,10.5,0,0,1-10.89-5.54c-2.29-4.07-2.35-8.56.84-12.12,16.44-18.34,32.41-37.15,50.87-53.54A30.39,30.39,0,0,1,1791.07,1636.39Z" transform="translate(-932.19 -1221.57)"/><path d="M1104.31,1796.7c6.89.3,12.6,4.74,17,11.24,8.84,13.12,13.78,27.87,17.83,43,1.28,4.79,2.13,9.7,3.31,14.52.81,3.33,1.39,6.62,3.84,9.52,3.17,3.76,2.46,8.28-1,12.78a13,13,0,0,1-14.73,4.33c-7.69-2.67-10.72-9-12.38-16.21-3.4-14.68-5.91-29.57-11-43.82a84.53,84.53,0,0,0-6.57-14.47c-.85-1.43-1.57-3-3.14-3.78-4.38-2.08-7-5-5.48-10.21C1093.31,1799.25,1097.53,1796.7,1104.31,1796.7Z" transform="translate(-932.19 -1221.57)"/><path d="M1071,1888.38c-.15,7.43-6.28,14.77-13.07,15.83-6.62,1-12.44-3.07-14.91-11.1-6-19.62-11.86-39.32-17.77-59a56.84,56.84,0,0,0-6.84-15.4c-1.85-2.77-2-5.66,0-8.35s5-3.24,8.06-2.39c5.58,1.53,9.46,5.34,12.68,9.94,6.07,8.68,9.4,18.62,13.06,28.4,3.53,9.46,6.78,19,10.17,28.56.88,2.49,1.76,4.77,4.54,6.13S1070.7,1885.48,1071,1888.38Z" transform="translate(-932.19 -1221.57)"/><path d="M978.11,1887.81c-.8-25.54,2.68-50.73,6-75.94.45-3.38,1.56-6.48,4.26-8.73a4.14,4.14,0,0,1,5.88,0c1.54,1.4,2.63,3.19,1.24,5.29-2.89,4.38-2.44,9.26-2,14,2,23,3.77,46,6.18,69,.82,7.75-.08,15-.43,22.42-.3,6.16-4.93,10.78-10.29,10.81s-10-4.47-10.81-10.47C976.87,1905.42,978.37,1896.61,978.11,1887.81Z" transform="translate(-932.19 -1221.57)"/><path d="M2136.92,1432.32a20.22,20.22,0,0,1,12.89,6.58,59.21,59.21,0,0,1,13.14,23.23c2.15,6.85,1.66,13.92-3,19.83-5.09,6.43-12.4,6.38-17.25-.15-6.73-9.07-12.75-18.6-16.92-29.17-1.71-4.32-2.31-8.68-.38-13.06C2127.44,1434.88,2131.06,1432.36,2136.92,1432.32Z" transform="translate(-932.19 -1221.57)"/><path d="M1012.77,1460.67c4.8.57,7,3.51,8.48,7.9,5.8,17.3,10.19,35,15,52.55a64,64,0,0,0,8.8,19.43c2.78,4,3,8-.36,11.84-2.9,3.29-7.68,3.65-12.34.91a40.08,40.08,0,0,1-18.09-22.46c-6.15-18.53-9-37.73-10.12-57.19a19.94,19.94,0,0,1,1.06-7.37C1006.41,1462.7,1009.25,1461.18,1012.77,1460.67Z" transform="translate(-932.19 -1221.57)"/></svg>